<?xml version="1.0" encoding="utf-8"?>
<!-- Generator: Adobe Illustrator 27.2.0, SVG Export Plug-In . SVG Version: 6.00 Build 0)  -->
<svg version="1.1" id="Layer_1" xmlns="http://www.w3.org/2000/svg" xmlns:xlink="http://www.w3.org/1999/xlink" x="0px" y="0px"
	 viewBox="0 0 115.01 112.41" style="enable-background:new 0 0 115.01 112.41;" xml:space="preserve">
<style type="text/css">
	.st0{clip-path:url(#SVGID_00000031205548090666153230000007370670043201475734_);fill:#353C58;}
	.st1{clip-path:url(#SVGID_00000031205548090666153230000007370670043201475734_);fill:#F7AD85;}
	.st2{clip-path:url(#SVGID_00000031205548090666153230000007370670043201475734_);fill:#E48B68;}
	.st3{opacity:0.32;clip-path:url(#SVGID_00000031205548090666153230000007370670043201475734_);fill:#B58B68;}
	.st4{clip-path:url(#SVGID_00000031205548090666153230000007370670043201475734_);fill:#F9CAC0;}
	.st5{clip-path:url(#SVGID_00000031205548090666153230000007370670043201475734_);fill:#FFFFFF;}
	.st6{clip-path:url(#SVGID_00000051380253730920516920000005799983845229381297_);fill:#353C58;}
	.st7{clip-path:url(#SVGID_00000051380253730920516920000005799983845229381297_);fill:#F7AD85;}
	.st8{clip-path:url(#SVGID_00000051380253730920516920000005799983845229381297_);fill:#E48B68;}
	.st9{opacity:0.32;clip-path:url(#SVGID_00000051380253730920516920000005799983845229381297_);fill:#B58B68;}
	.st10{clip-path:url(#SVGID_00000051380253730920516920000005799983845229381297_);fill:#F9CAC0;}
	.st11{clip-path:url(#SVGID_00000051380253730920516920000005799983845229381297_);fill:#FFFFFF;}
	.st12{clip-path:url(#SVGID_00000095305931044264057070000003883737120602925202_);fill:#353C58;}
	.st13{clip-path:url(#SVGID_00000095305931044264057070000003883737120602925202_);fill:#F7AD85;}
	.st14{clip-path:url(#SVGID_00000095305931044264057070000003883737120602925202_);fill:#E48B68;}
	.st15{clip-path:url(#SVGID_00000095305931044264057070000003883737120602925202_);fill:#FFFFFF;}
	.st16{clip-path:url(#SVGID_00000038398841434518354760000009002354720569248931_);fill:#353C58;}
	.st17{clip-path:url(#SVGID_00000038398841434518354760000009002354720569248931_);fill:#F7AD85;}
	.st18{clip-path:url(#SVGID_00000038398841434518354760000009002354720569248931_);fill:#E48B68;}
	.st19{clip-path:url(#SVGID_00000038398841434518354760000009002354720569248931_);fill:#F9CAC0;}
	.st20{clip-path:url(#SVGID_00000038398841434518354760000009002354720569248931_);}
	.st21{fill:#FFFFFF;}
	.st22{clip-path:url(#SVGID_00000062189614473862595710000007815495773821703328_);fill:#353C58;}
	.st23{clip-path:url(#SVGID_00000062189614473862595710000007815495773821703328_);fill:#F7AD85;}
	.st24{clip-path:url(#SVGID_00000062189614473862595710000007815495773821703328_);fill:#E48B68;}
	.st25{clip-path:url(#SVGID_00000062189614473862595710000007815495773821703328_);}
	.st26{clip-path:url(#SVGID_00000131341297279031474610000018305061290853136815_);fill:#353C58;}
	.st27{clip-path:url(#SVGID_00000131341297279031474610000018305061290853136815_);fill:#F7AD85;}
	.st28{clip-path:url(#SVGID_00000131341297279031474610000018305061290853136815_);fill:#E48B68;}
	.st29{opacity:0.32;clip-path:url(#SVGID_00000131341297279031474610000018305061290853136815_);fill:#B58B68;}
	.st30{clip-path:url(#SVGID_00000131341297279031474610000018305061290853136815_);}
	.st31{fill:#F7AD85;}
	.st32{fill:#F9CAC0;}
	.st33{clip-path:url(#SVGID_00000073723122811929988910000010885252948443766932_);fill:#353C58;}
	.st34{clip-path:url(#SVGID_00000073723122811929988910000010885252948443766932_);}
	.st35{fill:#E48B68;}
	.st36{clip-path:url(#SVGID_00000132057844496878054950000000088294770399196093_);fill:#353C58;}
	.st37{clip-path:url(#SVGID_00000132057844496878054950000000088294770399196093_);}
	.st38{clip-path:url(#SVGID_00000069374520281318679810000010418006129543882116_);fill:#353C58;}
	.st39{clip-path:url(#SVGID_00000069374520281318679810000010418006129543882116_);}
	.st40{opacity:0.32;fill:#B58B68;}
	.st41{clip-path:url(#SVGID_00000069374520281318679810000010418006129543882116_);fill:#E48B68;}
	.st42{clip-path:url(#SVGID_00000027570151337360035300000002098363661144178562_);fill:#353C58;}
	.st43{clip-path:url(#SVGID_00000027570151337360035300000002098363661144178562_);}
	.st44{clip-path:url(#SVGID_00000027570151337360035300000002098363661144178562_);fill:#E48B68;}
	.st45{clip-path:url(#SVGID_00000146489377977070602350000013215521562464653475_);fill:#353C58;}
	.st46{clip-path:url(#SVGID_00000146489377977070602350000013215521562464653475_);}
	.st47{clip-path:url(#SVGID_00000146489377977070602350000013215521562464653475_);fill:#DB7959;}
	.st48{clip-path:url(#SVGID_00000146489377977070602350000013215521562464653475_);fill:#E72527;}
	.st49{clip-path:url(#SVGID_00000029034902200610677760000009337997463136802448_);fill:#353C58;}
	.st50{clip-path:url(#SVGID_00000029034902200610677760000009337997463136802448_);fill:#F7AD85;}
	.st51{clip-path:url(#SVGID_00000029034902200610677760000009337997463136802448_);fill:#E48B68;}
	.st52{clip-path:url(#SVGID_00000029034902200610677760000009337997463136802448_);fill:#795050;}
	.st53{clip-path:url(#SVGID_00000029034902200610677760000009337997463136802448_);}
	.st54{clip-path:url(#SVGID_00000029034902200610677760000009337997463136802448_);fill:#FFFFFF;}
	.st55{clip-path:url(#SVGID_00000030459190874436848420000000650665930383848087_);fill:#353C58;}
	.st56{clip-path:url(#SVGID_00000030459190874436848420000000650665930383848087_);fill:#F7AD85;}
	.st57{clip-path:url(#SVGID_00000030459190874436848420000000650665930383848087_);fill:#E48B68;}
	.st58{clip-path:url(#SVGID_00000030459190874436848420000000650665930383848087_);fill:#795050;}
	.st59{clip-path:url(#SVGID_00000030459190874436848420000000650665930383848087_);}
	.st60{clip-path:url(#SVGID_00000030459190874436848420000000650665930383848087_);fill:#FFFFFF;}
	.st61{clip-path:url(#SVGID_00000096771681525532154470000001701176197901180071_);fill:#353C58;}
	.st62{clip-path:url(#SVGID_00000096771681525532154470000001701176197901180071_);fill:#E48B68;}
	.st63{clip-path:url(#SVGID_00000096771681525532154470000001701176197901180071_);}
	.st64{fill:#795050;}
	.st65{clip-path:url(#SVGID_00000096771681525532154470000001701176197901180071_);fill:#F7AD85;}
	.st66{clip-path:url(#SVGID_00000096771681525532154470000001701176197901180071_);fill:#FFFFFF;}
	.st67{fill:#353C58;}
	.st68{fill:#DB7959;}
	.st69{fill:#E72527;}
	.st70{fill:url(#SVGID_00000072985461126641214070000014983716075000284295_);}
	.st71{fill:url(#SVGID_00000055699810161953812840000000597271976176498103_);}
	.st72{fill:url(#SVGID_00000133530324478538429640000009293003278699255470_);}
	.st73{fill:url(#SVGID_00000083769634058958757880000000446970086267694236_);}
	.st74{fill:url(#SVGID_00000155839889255781986330000005482847063741467040_);}
	.st75{clip-path:url(#SVGID_00000078761419080948519990000005539748847201094533_);fill:#353C58;}
	.st76{clip-path:url(#SVGID_00000078761419080948519990000005539748847201094533_);}
	.st77{clip-path:url(#SVGID_00000152266535623254242820000018012587487554814393_);fill:#353C58;}
	.st78{clip-path:url(#SVGID_00000152266535623254242820000018012587487554814393_);}
	.st79{clip-path:url(#SVGID_00000015318583286175765000000002890763597401532581_);fill:#353C58;}
	.st80{clip-path:url(#SVGID_00000015318583286175765000000002890763597401532581_);}
	.st81{clip-path:url(#SVGID_00000008142166252056079300000000681069068080726188_);fill:#353C58;}
	.st82{clip-path:url(#SVGID_00000008142166252056079300000000681069068080726188_);}
	.st83{clip-path:url(#SVGID_00000133499257842514279900000000114884265433351553_);fill:#353C58;}
	.st84{clip-path:url(#SVGID_00000133499257842514279900000000114884265433351553_);fill:#F7AD85;}
	.st85{clip-path:url(#SVGID_00000133499257842514279900000000114884265433351553_);fill:#E48B68;}
	.st86{opacity:0.32;clip-path:url(#SVGID_00000133499257842514279900000000114884265433351553_);fill:#B58B68;}
	.st87{clip-path:url(#SVGID_00000133499257842514279900000000114884265433351553_);fill:#F9CAC0;}
	.st88{clip-path:url(#SVGID_00000133499257842514279900000000114884265433351553_);fill:#FFFFFF;}
	.st89{fill:#91CBFF;}
	.st90{fill:#C2EDFF;}
</style>
<g>
	<defs>
		
			<ellipse id="SVGID_00000087391969938596617630000015302315458760593850_" transform="matrix(0.9291 -0.3699 0.3699 0.9291 -26.2923 -24.7145)" cx="-77.59" cy="56.2" rx="50.27" ry="50.27"/>
	</defs>
	<clipPath id="SVGID_00000139277635212781256980000008511307243507573410_">
		<use xlink:href="#SVGID_00000087391969938596617630000015302315458760593850_"  style="overflow:visible;"/>
	</clipPath>
	<path style="clip-path:url(#SVGID_00000139277635212781256980000008511307243507573410_);fill:#F7AD85;" d="M1.01,45.91
		c0,0-3.94-4.54-8.88-9.15c-1.82-1.7-4.17-3.05-5.94-4.7c-3.32-3.09-6.23-5.77-7.46-6.85c-3.68-3.24-7.65-8.1-11.5-9.54
		c-5.09-1.92-10.24,4.16-10.24,4.16c0.47,1.69-2.24,3.53-0.27,5.56c1.97,2.03,8.36,4.7,11.64,8.55c2.12,2.49,6.82,6.04,10.5,9.41
		c0.52,0.48,4.65,3.64,8.64,6.49c-6.58,3.14-24.72,11.63-29.66,12.09c-6.07,0.57-9.7,1.75-10.54,3.93
		c-0.03,0.07-0.05,0.14-0.06,0.22c-0.17,0.25-0.34,0.53-0.53,0.86c-1.53,2.68-3.14,6.26-4.21,7.15c-1.07,0.89-5.06,3.06-6.58,3.26
		c-1.52,0.2-5.17,1.1-4.43,3.08c0.36,0.97,2.39,0.47,3.87,0.19c1.29-0.25,2.39-0.51,3.33-0.76c-1.16,0.42-2.28,0.79-2.9,0.91
		c-1.65,0.32-5.54,1.09-6.31,1.76c-0.77,0.67-0.76,2.98,2.47,2.4c3.23-0.58,6.34-1.73,6.8-1.8c0.47-0.07,4.48-1.6,5.45-1.8
		c0,0-6.34,2.44-7.59,2.72c-1.25,0.28-7.13,2.09-7.54,3.55c-0.41,1.46,0.53,2.46,2.66,1.79c2.13-0.67,7.16-2.8,8.13-3.15
		c0.97-0.35,4.85-1.58,5.2-1.69c0,0-3.87,2.34-5.1,2.93c-1.23,0.59-5.36,1.81-4.32,3.92c0.62,1.25,3.47,0.17,5.62-0.85
		c2.14-1.02,5.42-3.12,6.48-3.96c1.06-0.84,4.07-2.79,5.1-6.28c0.8-2.7,2-5.7,3.03-7.5c0.65-0.92,1.52-1.88,2.54-2.46
		c2.41-1.36,20.78-4.18,30.81-7.58c6.16-2.09,15.95-7.47,14.41-10.69C4.91,50.53,1.01,45.91,1.01,45.91z"/>
</g>
<g>
	<defs>
		
			<ellipse id="SVGID_00000011722631783827680970000016509739732062103700_" transform="matrix(0.9291 -0.3699 0.3699 0.9291 -16.7108 25.2558)" cx="57.5" cy="56.2" rx="50.27" ry="50.27"/>
	</defs>
	<clipPath id="SVGID_00000067924701891612763110000002569500039186545594_">
		<use xlink:href="#SVGID_00000011722631783827680970000016509739732062103700_"  style="overflow:visible;"/>
	</clipPath>
	
		<ellipse transform="matrix(0.9291 -0.3699 0.3699 0.9291 -16.7108 25.2558)" style="clip-path:url(#SVGID_00000067924701891612763110000002569500039186545594_);fill:#353C58;" cx="57.5" cy="56.2" rx="50.27" ry="50.27"/>
	<path style="clip-path:url(#SVGID_00000067924701891612763110000002569500039186545594_);fill:#F7AD85;" d="M84.46,73.52
		c1.6-26.75,17.86-63.85,19.87-69.67H12.66c2.01,5.82,18.28,42.92,19.87,69.67c0.27,4.5-7.55,24.78-8.51,29.27l34.28,8.9h0.38
		l34.28-8.9C92.01,98.3,84.19,78.01,84.46,73.52z"/>
	<path style="clip-path:url(#SVGID_00000067924701891612763110000002569500039186545594_);fill:#E48B68;" d="M86.26,45.06
		c-0.97,3.61-0.04,8.41-0.75,11.88c-0.25,1.26,0.16,6.21-0.03,7.4c1.81-11.53,5.49-23.98,9.14-34.65c-2.4,1.81-3.24,5.26-4.44,7.91
		C89.29,39.6,86.42,44.47,86.26,45.06z"/>
	<path style="clip-path:url(#SVGID_00000067924701891612763110000002569500039186545594_);fill:#E48B68;" d="M30.65,102.71
		c0.27-3.62,0.72-7.04,2.29-10.36c1.15-2.44,1.65-4.69,1.56-6.9c-1.33-0.98-2.68-2.04-3.87-3.24c-2.31,7.66-5.96,17.59-6.6,20.57
		l6.48,1.68C30.56,103.88,30.61,103.29,30.65,102.71z"/>
	<path style="clip-path:url(#SVGID_00000067924701891612763110000002569500039186545594_);fill:#E48B68;" d="M83.41,88.77
		c0.09,3.56-0.74,7.04-0.44,10.61c0.17,1.94,0.41,3.89,0.61,5.85l9.38-2.44c-0.63-2.96-4.25-12.81-6.56-20.45
		c-1.09,0.9-2.19,1.78-3.3,2.66C83.26,86.26,83.38,87.52,83.41,88.77z"/>
	<path style="clip-path:url(#SVGID_00000067924701891612763110000002569500039186545594_);fill:#E48B68;" d="M58.86,3.85h-1.09l0,0
		h-1.09c-0.12,6.16,0.61,12.32,0.73,18.49c0.14,7.24-0.18,14.44-0.18,21.7c0,7.1-0.36,14.18-0.57,21.27
		c-0.16,5.66,0.99,15.75,1.11,15.16c0.12,0.59,1.27-9.49,1.11-15.16c-0.2-7.09-0.57-14.17-0.57-21.27c0-7.25-0.33-14.45-0.18-21.7
		C58.25,16.17,58.98,10.01,58.86,3.85z"/>
	<path style="clip-path:url(#SVGID_00000067924701891612763110000002569500039186545594_);fill:#E48B68;" d="M58.2,96.9
		c0.16-5.66-0.32-15.75-0.43-15.16c-0.12-0.59-0.76,9.49-0.6,15.16c0.01,0.51,0.25,4.03,0.5,4.04
		C57.92,100.96,58.19,97.44,58.2,96.9z"/>
	<path style="clip-path:url(#SVGID_00000067924701891612763110000002569500039186545594_);fill:#F7AD85;" d="M187.01,32.45
		c0,0-3.94-4.54-8.88-9.15c-1.82-1.7-4.17-3.05-5.94-4.7c-3.32-3.09-6.23-5.77-7.46-6.85c-3.68-3.24-7.65-8.1-11.5-9.54
		c-5.09-1.92-10.24,4.16-10.24,4.16c0.47,1.69-2.24,3.53-0.27,5.56c1.97,2.03,8.36,4.7,11.64,8.55c2.12,2.49,6.82,6.04,10.5,9.41
		c0.52,0.48,4.65,3.64,8.64,6.49c-6.58,3.14-24.72,11.63-29.66,12.09c-6.07,0.57-9.7,1.75-10.54,3.93
		c-0.03,0.07-0.05,0.14-0.06,0.22c-0.17,0.25-0.34,0.53-0.53,0.86c-1.53,2.68-3.14,6.26-4.21,7.15c-1.07,0.89-5.06,3.06-6.58,3.26
		c-1.52,0.2-5.17,1.1-4.43,3.08c0.36,0.97,2.39,0.47,3.87,0.19c1.29-0.25,2.39-0.51,3.33-0.76c-1.16,0.42-2.28,0.79-2.9,0.91
		c-1.65,0.32-5.54,1.09-6.31,1.76c-0.77,0.67-0.76,2.98,2.47,2.4c3.23-0.58,6.34-1.73,6.8-1.8c0.47-0.07,4.48-1.6,5.45-1.8
		c0,0-6.34,2.44-7.59,2.72c-1.25,0.28-7.13,2.09-7.54,3.55c-0.41,1.46,0.53,2.46,2.66,1.79s7.16-2.8,8.13-3.15
		c0.97-0.35,4.85-1.58,5.2-1.69c0,0-3.87,2.34-5.1,2.93c-1.23,0.59-5.36,1.81-4.32,3.92c0.62,1.25,3.47,0.17,5.62-0.85
		c2.14-1.02,5.42-3.12,6.48-3.96c1.06-0.84,4.07-2.79,5.1-6.28c0.8-2.7,2-5.7,3.03-7.5c0.65-0.92,1.52-1.88,2.54-2.46
		c2.41-1.36,20.78-4.18,30.81-7.58c6.16-2.09,15.95-7.47,14.41-10.69C190.91,37.08,187.01,32.45,187.01,32.45z"/>
	<path style="clip-path:url(#SVGID_00000067924701891612763110000002569500039186545594_);fill:#E48B68;" d="M31.41,58.18
		C31.19,56.56,31.04,55,31,53.36c-0.05-1.83-0.11-3.65-0.45-5.41c0,0,0-0.01,0-0.01c-0.18-4.06-5.9-13.93-4.3-23.86
		c0.28-1.71-3.44-9.81-3.29-10.33c0,0-3.2-0.01-8.29,1.9c-3.85,1.45-7.82,6.3-11.5,9.54c-1.23,1.09-4.14,3.77-7.46,6.85
		c-1.78,1.65-4.12,3-5.94,4.7c-1.02,0.96-2,1.91-2.92,2.82H7.38c2.48-2.09,4.83-4.08,6.16-5.65c2.1-2.47,5.49-4.46,8.17-6.1
		c0.64,1.85,1.29,3.73,1.93,5.69c0.21,0.65,0.43,1.3,0.64,1.96c0.18,0.56,0.36,1.13,0.54,1.7c0.18,0.58,0.36,1.16,0.54,1.74
		c0.19,0.62,0.38,1.24,0.57,1.87c0.17,0.55,0.33,1.11,0.49,1.67c0.19,0.65,0.38,1.29,0.56,1.94c1.74,6.12,3.26,12.41,4.29,18.47
		c0,0,0,0.01,0,0.01C31.94,62.12,31.54,59.11,31.41,58.18z"/>
	<path style="clip-path:url(#SVGID_00000067924701891612763110000002569500039186545594_);fill:#E48B68;" d="M85.62,58.18
		c0.22-1.61,0.37-3.18,0.41-4.82c0.05-1.83,0.11-3.65,0.45-5.41c0,0,0-0.01,0-0.01c0.18-4.06,4.81-11.39,4.3-23.86
		c-0.07-1.73,3.44-9.81,3.29-10.33c0,0,3.2-0.01,8.29,1.9c3.85,1.45,7.82,6.3,11.5,9.54c1.23,1.09,4.14,3.77,7.46,6.85
		c1.78,1.65,4.12,3,5.94,4.7c1.02,0.96,2,1.91,2.92,2.82h-20.52c-2.48-2.09-4.83-4.08-6.16-5.65c-2.1-2.47-5.49-4.46-8.17-6.1
		c-0.64,1.85-1.29,3.73-1.93,5.69c-0.21,0.65-0.43,1.3-0.64,1.96c-0.18,0.56-0.36,1.13-0.54,1.7c-0.18,0.58-0.36,1.16-0.54,1.74
		c-0.19,0.62-0.38,1.24-0.57,1.87c-0.17,0.55-0.33,1.11-0.49,1.67c-0.19,0.65-0.38,1.29-0.56,1.94c-1.74,6.12-3.26,12.41-4.29,18.47
		c0,0,0,0.01,0,0.01C85.08,62.12,85.49,59.11,85.62,58.18z"/>
	<path style="clip-path:url(#SVGID_00000067924701891612763110000002569500039186545594_);fill:#E48B68;" d="M41.78,91.04
		c1.9,0.8,3.95,1.37,4.46,0.33c0.06-0.11,0.09-0.22,0.12-0.33H41.78z"/>
	<path style="clip-path:url(#SVGID_00000067924701891612763110000002569500039186545594_);fill:#E48B68;" d="M73.06,91.04
		c-1.9,0.8-3.95,1.37-4.46,0.33c-0.06-0.11-0.09-0.22-0.12-0.33H73.06z"/>
	<path style="clip-path:url(#SVGID_00000067924701891612763110000002569500039186545594_);fill:#E48B68;" d="M29.04,23.83
		c1.73-1.38,5.9-1.74,8.44-2.53c2.95-0.92,5.24-2.75,6.35-5.02c1.03-2.12,1.32-4.48,2.1-6.63c0.5-1.39,1.06-5.43,2.71-5.87
		c0.17,2.6-0.64,4.99-1.15,7.53c-0.5,2.47-0.42,5.38-1.54,7.74c-1.3,2.72-4.26,4.83-7.77,4.97C35.65,24.12,30.9,22.63,29.04,23.83z"
		/>
	<path style="clip-path:url(#SVGID_00000067924701891612763110000002569500039186545594_);fill:#E48B68;" d="M85.96,23.83
		c-1.73-1.38-5.9-1.74-8.44-2.53c-2.95-0.92-5.24-2.75-6.35-5.02c-1.03-2.12-1.32-4.48-2.1-6.63c-0.5-1.39-1.06-5.43-2.71-5.87
		C66.2,6.37,67,8.75,67.52,11.3c0.5,2.47,0.42,5.38,1.54,7.74c1.3,2.72,4.26,4.83,7.77,4.97C79.36,24.12,84.1,22.63,85.96,23.83z"/>
	<path style="clip-path:url(#SVGID_00000067924701891612763110000002569500039186545594_);fill:#FFFFFF;" d="M96.37,82.27l0.56-1.1
		l1.68,0.99c0.08-0.33,0.16-0.67,0.23-1l-2.18-1.59l-0.41,1.88l-3.22-1.51l-0.68,1.23l-3-1.15l3,1.95l0.99-1.24L96.37,82.27z"/>
	<path style="clip-path:url(#SVGID_00000067924701891612763110000002569500039186545594_);fill:#FFFFFF;" d="M99.35,55.05
		l-0.52-1.11l1.81-0.72c-0.21-0.27-0.43-0.53-0.65-0.79l-2.59,0.75l1.24,1.47l-3.17,1.62l0.55,1.29l-2.75,1.66l3.38-1.18l-0.37-1.55
		L99.35,55.05z"/>
	<path style="clip-path:url(#SVGID_00000067924701891612763110000002569500039186545594_);fill:#FFFFFF;" d="M99.01,75.93l0.17-1.22
		l1.91,0.4c-0.03-0.34-0.07-0.68-0.11-1.02l-2.57-0.8l0.22,1.91l-3.54-0.39l-0.25,1.38l-3.21-0.12l3.47,0.87l0.54-1.5L99.01,75.93z"
		/>
	<polygon style="clip-path:url(#SVGID_00000067924701891612763110000002569500039186545594_);fill:#FFFFFF;" points="89.06,58.31 
		92.48,54.69 91.14,53.11 95.32,49.18 92.84,47.67 98.21,44.08 99.15,45.02 95.34,48.04 96.59,49.4 92.45,53.04 93.62,55.07 	"/>
	<path style="clip-path:url(#SVGID_00000067924701891612763110000002569500039186545594_);fill:#FFFFFF;" d="M20.73,83.71l-0.56-1.1
		L18.5,83.6c-0.08-0.33-0.16-0.67-0.23-1l2.18-1.59l0.41,1.88l3.22-1.51l0.68,1.23l3-1.15l-3,1.95l-0.99-1.24L20.73,83.71z"/>
	<path style="clip-path:url(#SVGID_00000067924701891612763110000002569500039186545594_);fill:#FFFFFF;" d="M17.76,56.49l0.52-1.11
		l-1.81-0.72c0.21-0.27,0.43-0.53,0.65-0.79l2.59,0.75l-1.24,1.47l3.17,1.62L21.08,59l2.75,1.66l-3.38-1.18l0.37-1.55L17.76,56.49z"
		/>
	<path style="clip-path:url(#SVGID_00000067924701891612763110000002569500039186545594_);fill:#FFFFFF;" d="M18.1,77.37l-0.17-1.22
		l-1.91,0.4c0.03-0.34,0.07-0.68,0.11-1.02l2.57-0.8l-0.22,1.91l3.54-0.39l0.25,1.38l3.21-0.12l-3.47,0.87l-0.54-1.5L18.1,77.37z"/>
	<polygon style="clip-path:url(#SVGID_00000067924701891612763110000002569500039186545594_);fill:#FFFFFF;" points="28.05,59.75 
		24.63,56.13 25.97,54.55 21.78,50.62 24.26,49.11 18.89,45.52 17.96,46.46 21.77,49.48 20.52,50.84 24.65,54.48 23.49,56.51 	"/>
</g>
<g>
	<g>
		<g>
			<path class="st35" d="M61.74,56.06c-1.82,0-1.7,1.58-2.74,2.53c-0.85,0.77-2.15,0.77-3,0c-1.03-0.94-0.93-2.53-2.74-2.53
				c-2.45,0-2.66,3.4-0.62,3.97c2.08,0.59,2.82,2.1,2.85,2.41c0.24,2.28,3.79,2.28,4.03,0c0.01-0.09,0.58-1.79,2.83-2.4
				C64.41,59.47,64.21,56.06,61.74,56.06z"/>
		</g>
		<g>
			<path class="st35" d="M61.74,63.16c-1.82,0-1.7,1.58-2.74,2.53c-0.85,0.77-2.15,0.77-3,0c-1.03-0.94-0.93-2.53-2.74-2.53
				c-2.45,0-2.66,3.4-0.62,3.97c2.08,0.59,2.82,2.1,2.85,2.41c0.24,2.28,3.79,2.28,4.03,0c0.01-0.09,0.58-1.79,2.83-2.4
				C64.41,66.58,64.21,63.16,61.74,63.16z"/>
		</g>
		<g>
			<path class="st35" d="M61.74,70.27c-1.82,0-1.7,1.58-2.74,2.53c-0.85,0.77-2.15,0.77-3,0c-1.03-0.94-0.93-2.53-2.74-2.53
				c-2.45,0-2.66,3.4-0.62,3.97c2.08,0.59,2.82,2.1,2.85,2.41c0.24,2.28,3.79,2.28,4.03,0c0.01-0.09,0.58-1.79,2.83-2.4
				C64.41,73.68,64.21,70.27,61.74,70.27z"/>
		</g>
		<g>
			<path class="st35" d="M61.74,77.38c-1.82,0-1.7,1.58-2.74,2.53c-0.85,0.77-2.15,0.77-3,0c-1.03-0.94-0.93-2.53-2.74-2.53
				c-2.45,0-2.66,3.4-0.62,3.97c2.08,0.59,2.82,2.1,2.85,2.41c0.24,2.28,3.79,2.28,4.03,0c0.01-0.09,0.58-1.79,2.83-2.4
				C64.41,80.79,64.21,77.38,61.74,77.38z"/>
		</g>
	</g>
</g>
</svg>
