<?xml version="1.0" encoding="utf-8"?>
<!-- Generator: Adobe Illustrator 27.2.0, SVG Export Plug-In . SVG Version: 6.00 Build 0)  -->
<svg version="1.1" id="Layer_1" xmlns="http://www.w3.org/2000/svg" xmlns:xlink="http://www.w3.org/1999/xlink" x="0px" y="0px"
	 viewBox="0 0 115.01 112.41" style="enable-background:new 0 0 115.01 112.41;" xml:space="preserve">
<style type="text/css">
	.st0{clip-path:url(#SVGID_00000003804758117220916380000017279147010050231990_);fill:#353C58;}
	.st1{clip-path:url(#SVGID_00000003804758117220916380000017279147010050231990_);fill:#F7AD85;}
	.st2{clip-path:url(#SVGID_00000003804758117220916380000017279147010050231990_);fill:#E48B68;}
	.st3{opacity:0.32;clip-path:url(#SVGID_00000003804758117220916380000017279147010050231990_);fill:#B58B68;}
	.st4{clip-path:url(#SVGID_00000003804758117220916380000017279147010050231990_);fill:#F9CAC0;}
	.st5{clip-path:url(#SVGID_00000003804758117220916380000017279147010050231990_);fill:#FFFFFF;}
	.st6{clip-path:url(#SVGID_00000034055070464057311880000006444210572604640167_);fill:#353C58;}
	.st7{clip-path:url(#SVGID_00000034055070464057311880000006444210572604640167_);fill:#F7AD85;}
	.st8{clip-path:url(#SVGID_00000034055070464057311880000006444210572604640167_);fill:#E48B68;}
	.st9{opacity:0.32;clip-path:url(#SVGID_00000034055070464057311880000006444210572604640167_);fill:#B58B68;}
	.st10{clip-path:url(#SVGID_00000034055070464057311880000006444210572604640167_);fill:#F9CAC0;}
	.st11{clip-path:url(#SVGID_00000034055070464057311880000006444210572604640167_);fill:#FFFFFF;}
	.st12{clip-path:url(#SVGID_00000143601037600885825440000011159074731198569394_);fill:#353C58;}
	.st13{clip-path:url(#SVGID_00000143601037600885825440000011159074731198569394_);fill:#F7AD85;}
	.st14{clip-path:url(#SVGID_00000143601037600885825440000011159074731198569394_);fill:#E48B68;}
	.st15{clip-path:url(#SVGID_00000143601037600885825440000011159074731198569394_);fill:#FFFFFF;}
	.st16{clip-path:url(#SVGID_00000116210788481489150720000013529557968257479326_);fill:#353C58;}
	.st17{clip-path:url(#SVGID_00000116210788481489150720000013529557968257479326_);fill:#F7AD85;}
	.st18{clip-path:url(#SVGID_00000116210788481489150720000013529557968257479326_);fill:#E48B68;}
	.st19{clip-path:url(#SVGID_00000116210788481489150720000013529557968257479326_);fill:#F9CAC0;}
	.st20{clip-path:url(#SVGID_00000116210788481489150720000013529557968257479326_);}
	.st21{fill:#FFFFFF;}
	.st22{clip-path:url(#SVGID_00000084509017312764288070000015204572426097936030_);fill:#353C58;}
	.st23{clip-path:url(#SVGID_00000084509017312764288070000015204572426097936030_);fill:#F7AD85;}
	.st24{clip-path:url(#SVGID_00000084509017312764288070000015204572426097936030_);fill:#E48B68;}
	.st25{clip-path:url(#SVGID_00000084509017312764288070000015204572426097936030_);}
	.st26{clip-path:url(#SVGID_00000173153726653989974450000001615060864028486560_);fill:#353C58;}
	.st27{clip-path:url(#SVGID_00000173153726653989974450000001615060864028486560_);fill:#F7AD85;}
	.st28{clip-path:url(#SVGID_00000173153726653989974450000001615060864028486560_);fill:#E48B68;}
	.st29{opacity:0.32;clip-path:url(#SVGID_00000173153726653989974450000001615060864028486560_);fill:#B58B68;}
	.st30{clip-path:url(#SVGID_00000173153726653989974450000001615060864028486560_);}
	.st31{fill:#F7AD85;}
	.st32{fill:#F9CAC0;}
	.st33{clip-path:url(#SVGID_00000027602257223057896530000016754948877146075284_);fill:#353C58;}
	.st34{clip-path:url(#SVGID_00000027602257223057896530000016754948877146075284_);}
	.st35{fill:#E48B68;}
	.st36{clip-path:url(#SVGID_00000037655547292732045470000006800938279063414680_);fill:#353C58;}
	.st37{clip-path:url(#SVGID_00000037655547292732045470000006800938279063414680_);}
	.st38{clip-path:url(#SVGID_00000016064566957240811860000006554079346735905727_);fill:#353C58;}
	.st39{clip-path:url(#SVGID_00000016064566957240811860000006554079346735905727_);}
	.st40{opacity:0.32;fill:#B58B68;}
	.st41{clip-path:url(#SVGID_00000016064566957240811860000006554079346735905727_);fill:#E48B68;}
	.st42{clip-path:url(#SVGID_00000066514757239940586430000016190786490588931739_);fill:#353C58;}
	.st43{clip-path:url(#SVGID_00000066514757239940586430000016190786490588931739_);}
	.st44{clip-path:url(#SVGID_00000066514757239940586430000016190786490588931739_);fill:#E48B68;}
	.st45{clip-path:url(#SVGID_00000023987674800823583760000005992538722560201895_);fill:#353C58;}
	.st46{clip-path:url(#SVGID_00000023987674800823583760000005992538722560201895_);}
	.st47{clip-path:url(#SVGID_00000023987674800823583760000005992538722560201895_);fill:#DB7959;}
	.st48{clip-path:url(#SVGID_00000023987674800823583760000005992538722560201895_);fill:#E72527;}
	.st49{clip-path:url(#SVGID_00000121244086112425365010000015400480331962589359_);fill:#353C58;}
	.st50{clip-path:url(#SVGID_00000121244086112425365010000015400480331962589359_);fill:#F7AD85;}
	.st51{clip-path:url(#SVGID_00000121244086112425365010000015400480331962589359_);fill:#E48B68;}
	.st52{clip-path:url(#SVGID_00000121244086112425365010000015400480331962589359_);fill:#795050;}
	.st53{clip-path:url(#SVGID_00000121244086112425365010000015400480331962589359_);}
	.st54{clip-path:url(#SVGID_00000121244086112425365010000015400480331962589359_);fill:#FFFFFF;}
	.st55{clip-path:url(#SVGID_00000069356654180938409270000006668678602558257855_);fill:#353C58;}
	.st56{clip-path:url(#SVGID_00000069356654180938409270000006668678602558257855_);fill:#F7AD85;}
	.st57{clip-path:url(#SVGID_00000069356654180938409270000006668678602558257855_);fill:#E48B68;}
	.st58{clip-path:url(#SVGID_00000069356654180938409270000006668678602558257855_);fill:#795050;}
	.st59{clip-path:url(#SVGID_00000069356654180938409270000006668678602558257855_);}
	.st60{clip-path:url(#SVGID_00000069356654180938409270000006668678602558257855_);fill:#FFFFFF;}
	.st61{clip-path:url(#SVGID_00000142872154833700885310000000250297953655969715_);fill:#353C58;}
	.st62{clip-path:url(#SVGID_00000142872154833700885310000000250297953655969715_);fill:#E48B68;}
	.st63{clip-path:url(#SVGID_00000142872154833700885310000000250297953655969715_);}
	.st64{fill:#795050;}
	.st65{clip-path:url(#SVGID_00000142872154833700885310000000250297953655969715_);fill:#F7AD85;}
	.st66{clip-path:url(#SVGID_00000142872154833700885310000000250297953655969715_);fill:#FFFFFF;}
	.st67{fill:#353C58;}
	.st68{fill:#DB7959;}
	.st69{fill:#E72527;}
	.st70{fill:url(#SVGID_00000135683355638034371950000000927773118827490697_);}
	.st71{fill:url(#SVGID_00000010990427215171059520000012415581680314862230_);}
	.st72{fill:url(#SVGID_00000147902539896226454450000011077395466303357622_);}
	.st73{fill:url(#SVGID_00000111159904626959743280000005227759099180706216_);}
	.st74{fill:url(#SVGID_00000135687610399801729440000013530832513293454770_);}
	.st75{clip-path:url(#SVGID_00000158729698925832446240000013049706228500684216_);fill:#353C58;}
	.st76{clip-path:url(#SVGID_00000158729698925832446240000013049706228500684216_);}
	.st77{clip-path:url(#SVGID_00000024723771555944748320000012459107520756876442_);fill:#353C58;}
	.st78{clip-path:url(#SVGID_00000024723771555944748320000012459107520756876442_);}
	.st79{clip-path:url(#SVGID_00000003064043257214122620000017312144814934557859_);fill:#353C58;}
	.st80{clip-path:url(#SVGID_00000003064043257214122620000017312144814934557859_);}
	.st81{clip-path:url(#SVGID_00000165940307935730662100000003850342600991937699_);fill:#353C58;}
	.st82{clip-path:url(#SVGID_00000165940307935730662100000003850342600991937699_);}
	.st83{clip-path:url(#SVGID_00000075855235866790904590000014977112973675646611_);fill:#353C58;}
	.st84{clip-path:url(#SVGID_00000075855235866790904590000014977112973675646611_);fill:#F7AD85;}
	.st85{clip-path:url(#SVGID_00000075855235866790904590000014977112973675646611_);fill:#E48B68;}
	.st86{opacity:0.32;clip-path:url(#SVGID_00000075855235866790904590000014977112973675646611_);fill:#B58B68;}
	.st87{clip-path:url(#SVGID_00000075855235866790904590000014977112973675646611_);fill:#F9CAC0;}
	.st88{clip-path:url(#SVGID_00000075855235866790904590000014977112973675646611_);fill:#FFFFFF;}
	.st89{fill:#91CBFF;}
	.st90{fill:#C2EDFF;}
</style>
<g>
	<defs>
		<circle id="SVGID_00000077291464991326101630000008134765898879253891_" cx="57.5" cy="56.2" r="50.27"/>
	</defs>
	<clipPath id="SVGID_00000072275443919958829030000012200378262749416886_">
		<use xlink:href="#SVGID_00000077291464991326101630000008134765898879253891_"  style="overflow:visible;"/>
	</clipPath>
	
		<circle style="clip-path:url(#SVGID_00000072275443919958829030000012200378262749416886_);fill:#353C58;" cx="57.5" cy="56.2" r="50.27"/>
	<path style="clip-path:url(#SVGID_00000072275443919958829030000012200378262749416886_);fill:#F7AD85;" d="M29.46,10.37
		c0,0,1.24,26.04,5.36,27.98c4.11,1.94,30,7.98,30,10.64c0,2.66-12.58,53.22-3.63,85.16H7.23V18.99L29.46,10.37z"/>
	<path style="clip-path:url(#SVGID_00000072275443919958829030000012200378262749416886_);fill:#E48B68;" d="M14.9,105.38
		c2.41-1.67,4.83-3.23,7.4-4.63c3.11-1.69,5.27-4.02,7.98-6.22c3.92-3.19,7.49-5.61,12.76-5.39c6.01,0.25,10.41-2.95,16.1-3.87
		c0.9-8.82,2.18-16.9,3.29-23.2c-1.85,0.81-3.85,1.04-5.88,0.23c-2.9-1.15-3.91-3.82-4.85-6.56c-0.48-1.4-1.03-1.9-2.19-2.83
		c-3.32,0.3-7.13,2.85-9.31,4.02c-4.21,2.28-8.12,4.76-11.32,8.37c-2.59,2.91-5,6.04-8.09,8.44c-4.04,3.15-8.37,8.44-13.55,9.2V109
		C9.94,108.06,12.57,106.99,14.9,105.38z"/>
	<path style="clip-path:url(#SVGID_00000072275443919958829030000012200378262749416886_);fill:#E48B68;" d="M43.34,110.18
		c-0.26,4.29-0.22,8.62-1.09,12.85c-0.44,2.12-1.08,4.24-2.2,6.11c-0.28,0.46-2.85,5.01-2.9,5.01c0.01,0,24.04,0,24.04,0
		c-1.6,0-2.91-18.07-3.01-19.86c-0.38-7.04,0.48-14.08,0.22-21.07c-2.46,0.42-6.43-6.28-6.43-6.28
		C51.61,95.49,43.66,104.86,43.34,110.18z"/>
	<path style="clip-path:url(#SVGID_00000072275443919958829030000012200378262749416886_);fill:#E48B68;" d="M26.19,53.36
		c3.2-0.55,6.7-1.07,9.77-2.15c3.3-1.17,6.55-1.31,13.05-1.11c-0.02-0.01-0.04-0.01-0.06-0.02c-4.06-1.38-8.42-1.62-12.62-0.78
		c-1.28,0.26-2.57,0.51-3.87,0.72c-3.61,0.59-6.99,1.18-10.08,3.25c-1.41,0.94-2.72,2-3.98,3.13
		C20.91,55.51,23.55,53.82,26.19,53.36z"/>
	<path style="clip-path:url(#SVGID_00000072275443919958829030000012200378262749416886_);fill:#F7AD85;" d="M75.74,54.7
		c-3.26-9.1-17.42-9.09-17.42-9.09c-1.74,2.58-1.7,9.29-2.18,14.29c-0.48,5-2.4,8.47-3.86,17.34c-0.94,5.74-0.34,16.19-0.67,25.04
		c-0.08,2.09,1.28,26.17,2.84,33.21c0,0,19.14-0.24,19.15-0.24c0,0,1.62-10.57,2.19-22.56c0.21-4.42-0.66-9.15-0.47-13.45
		c0.36-8.05,0.65-15.07,0.71-17.99C76.19,72.54,78.2,61.58,75.74,54.7z"/>
	<path style="opacity:0.32;clip-path:url(#SVGID_00000072275443919958829030000012200378262749416886_);fill:#B58B68;" d="
		M70.29,73.51c0.55-2,2.34-2.75,3.53-4.22c-0.25,0.31-0.94-5.95-1-6.87c-0.11-1.81-2.9-2.56-3.8-4.1c-0.72-1.22,0.13-2.63-2.18-2.35
		c-1.35,0.06-2.59,0.46-3.7,1.21c-2.23,1.44-4.72,2.05-6.99,3.4c-0.03,0.02-0.07,0.03-0.1,0.05c-0.59,4.63-2.39,8.18-3.77,16.62
		c-0.42,2.6-0.53,6.17-0.56,10.11c4.98-1.18,10.67-2.86,13.99-6.27C68.15,78.56,69.38,76.82,70.29,73.51z"/>
	<path style="clip-path:url(#SVGID_00000072275443919958829030000012200378262749416886_);fill:#E48B68;" d="M51.75,85.22
		c-0.09,5.27,0.07,11.48-0.13,17.06c-0.02,0.49,0.04,2.17,0.16,4.55c0.97-1.72,0.51-4.66,1.05-6.49
		C54.27,95.38,53.64,90.9,51.75,85.22z"/>
	<path style="clip-path:url(#SVGID_00000072275443919958829030000012200378262749416886_);fill:#E48B68;" d="M76.95,64.04
		c-0.45,2.23-0.93,4.5-1.6,6.56c-1.08,3.34-2.28,5.43-2.91,8.78c-0.47,2.47,0.95,4.91,0.95,9.14c0,3.93,1.27,7.42,2,9.13
		c0.33-7.38,0.59-13.68,0.64-16.41C76.13,75.87,76.93,69.64,76.95,64.04z"/>
	<path style="clip-path:url(#SVGID_00000072275443919958829030000012200378262749416886_);fill:#F7AD85;" d="M2.82,89.77
		c0,0,22.95-12.45,23.9-13.89c0.95-1.45,6.51-11.86,8.43-12.78c1.92-0.92,6.15-3.83,7.04-4.55c0.89-0.72,6.09-4.67,7.84-5.8
		c3.15-2.04,3.97,3.23-1.45,6.76c-4.08,2.65-5.48,5.13-7.07,5.8c0,0,7.8-2.35,10.16-3.33c2.36-0.98,6.59-2.79,8.31-3.31
		c1.76-0.53,8.52-2.93,9.15-1.16c0.63,1.77-1.86,4-7.48,5.94s-10.68,4.64-9.1,4.48c0.66-0.07,6.96-2.96,8.54-3.46
		c0.88-0.27,3.33-1.09,5.7-1.9c2.68-0.92,5.4-1.88,6.41-0.72c1.61,1.86-1.16,3.19-4.39,4.88c-1.31,0.68-4.45,2-5.82,2.52
		c-3.89,1.48-6.59,3.02-7.06,3.12c0,0,4.84-1.76,9.09-3.17c3.08-1.02,6.65-2.12,7.39-1.53c1.31,1.04,0.65,2.13-1.72,3.59
		c-0.88,0.55-1.96,1.11-3.2,1.66c-2.04,0.92-4.16,1.93-5.94,2.59c-3.97,1.47-5.36,2.21-5.36,2.21s3.15-0.82,6.31-1.87
		c2.67-0.89,3.61-1.04,4.44-1.15c2.36-0.31,3.78,2.11-2.24,4.54c-2.02,0.82-4.69,2.09-6.84,2.85c-6.3,2.23-10.81,3.35-13.34,4.22
		c-2.54,0.87-7.97,1.29-9.98,2.34c-2,1.05-27.58,15.7-27.58,15.7S3.06,97.79,2.82,89.77z"/>
	<path style="clip-path:url(#SVGID_00000072275443919958829030000012200378262749416886_);fill:#F9CAC0;" d="M46.26,55.42
		c0.13,0.35,0.62,0.73,1.15,0.87c0.61,0.16,0.8,0.08,1.23-0.32c0.87-0.8,1.73-1.62,2.12-2.23c0.75-1.15,0-1.52-0.67-1.15
		C49.52,52.91,46.6,54.83,46.26,55.42z"/>
	<path style="clip-path:url(#SVGID_00000072275443919958829030000012200378262749416886_);fill:#F9CAC0;" d="M68.13,56.65
		c-1.23-0.11-3.11,0.31-3.28,1.12c-0.17,0.83,0.14,1.96,1.14,2.38c0.64,0.26,1.28-0.06,1.83-0.32c0.6-0.28,1.23-0.39,1.43-1.1
		C69.42,58.14,69.37,56.76,68.13,56.65z"/>
	<path style="clip-path:url(#SVGID_00000072275443919958829030000012200378262749416886_);fill:#F9CAC0;" d="M72.65,61.45
		c-0.65-0.05-1.48-0.01-2.09,0.19c-0.81,0.27-1.17,0.59-0.92,1.54c0.17,0.65,0.53,1.54,1.28,1.54c0.71,0,1.77-0.42,2.28-0.84
		C74.17,63.09,73.36,61.51,72.65,61.45z"/>
	<path style="clip-path:url(#SVGID_00000072275443919958829030000012200378262749416886_);fill:#F9CAC0;" d="M72.05,67.54
		c-1.34-0.04-3.59,0.41-3.03,2.23c0.54,1.73,2.58,1.02,3.67,0.2C73.97,69.02,72.91,67.57,72.05,67.54z"/>
	<path style="clip-path:url(#SVGID_00000072275443919958829030000012200378262749416886_);fill:#F9CAC0;" d="M68.01,74.67
		c-1.3,0.02-3.41,0.45-2.89,2.3c0.25,0.91,1.02,1.05,1.83,0.74c0.67-0.25,1.62-0.53,1.95-1.26C69.17,75.85,68.9,74.66,68.01,74.67z"
		/>
	<path style="clip-path:url(#SVGID_00000072275443919958829030000012200378262749416886_);fill:#FFFFFF;" d="M96,54.52l0.57-2.61
		l4.33,0.92c-0.02-0.74-0.05-1.48-0.08-2.21l-5.82-1.81l0.26,4.14l-7.98-0.93l-0.69,2.94l-7.14-0.36l7.65,1.96l1.35-3.15L96,54.52z"
		/>
	<path style="clip-path:url(#SVGID_00000072275443919958829030000012200378262749416886_);fill:#FFFFFF;" d="M70.29,32.35
		l-1.98-0.31l0.5-3.29c-0.55,0.04-1.11,0.1-1.66,0.16l-1.11,4.45l3.1-0.37l-0.36,6.03l2.23,0.39l0.03,5.37l1.14-5.83l-2.42-0.88
		L70.29,32.35z"/>
	<path style="clip-path:url(#SVGID_00000072275443919958829030000012200378262749416886_);fill:#FFFFFF;" d="M88.25,73.79l1.83-0.84
		l1.41,3.02c0.44-0.34,0.87-0.69,1.29-1.05l-1.54-4.32l-2.38,2.02l-3.04-5.22l-2.08,0.91l-3-4.45l2.28,5.48l2.51-0.61L88.25,73.79z"
		/>
	<polygon style="clip-path:url(#SVGID_00000072275443919958829030000012200378262749416886_);fill:#FFFFFF;" points="77.31,48.68 
		82.61,43.89 81.01,41.32 87.32,36.34 84.21,33.59 91.96,29.52 93.02,31.1 87.52,34.68 88.97,36.92 82.83,41.46 84.1,44.65 	"/>
</g>
</svg>
