<?xml version="1.0" encoding="utf-8"?>
<!-- Generator: Adobe Illustrator 27.2.0, SVG Export Plug-In . SVG Version: 6.00 Build 0)  -->
<svg version="1.1" id="Layer_1" xmlns="http://www.w3.org/2000/svg" xmlns:xlink="http://www.w3.org/1999/xlink" x="0px" y="0px"
	 viewBox="0 0 115.01 112.41" style="enable-background:new 0 0 115.01 112.41;" xml:space="preserve">
<style type="text/css">
	.st0{clip-path:url(#SVGID_00000021086361993542367030000015960845161807452346_);fill:#353C58;}
	.st1{clip-path:url(#SVGID_00000021086361993542367030000015960845161807452346_);fill:#F7AD85;}
	.st2{clip-path:url(#SVGID_00000021086361993542367030000015960845161807452346_);fill:#E48B68;}
	.st3{opacity:0.32;clip-path:url(#SVGID_00000021086361993542367030000015960845161807452346_);fill:#B58B68;}
	.st4{clip-path:url(#SVGID_00000021086361993542367030000015960845161807452346_);fill:#F9CAC0;}
	.st5{clip-path:url(#SVGID_00000021086361993542367030000015960845161807452346_);fill:#FFFFFF;}
	.st6{clip-path:url(#SVGID_00000083071670309594345070000003471440936822316190_);fill:#353C58;}
	.st7{clip-path:url(#SVGID_00000083071670309594345070000003471440936822316190_);fill:#F7AD85;}
	.st8{clip-path:url(#SVGID_00000083071670309594345070000003471440936822316190_);fill:#E48B68;}
	.st9{opacity:0.32;clip-path:url(#SVGID_00000083071670309594345070000003471440936822316190_);fill:#B58B68;}
	.st10{clip-path:url(#SVGID_00000083071670309594345070000003471440936822316190_);fill:#F9CAC0;}
	.st11{clip-path:url(#SVGID_00000083071670309594345070000003471440936822316190_);fill:#FFFFFF;}
	.st12{clip-path:url(#SVGID_00000088818351900004161160000010767181821971486641_);fill:#353C58;}
	.st13{clip-path:url(#SVGID_00000088818351900004161160000010767181821971486641_);fill:#F7AD85;}
	.st14{clip-path:url(#SVGID_00000088818351900004161160000010767181821971486641_);fill:#E48B68;}
	.st15{clip-path:url(#SVGID_00000088818351900004161160000010767181821971486641_);fill:#FFFFFF;}
	.st16{clip-path:url(#SVGID_00000062901955403481801520000006670942478690815375_);fill:#353C58;}
	.st17{clip-path:url(#SVGID_00000062901955403481801520000006670942478690815375_);fill:#F7AD85;}
	.st18{clip-path:url(#SVGID_00000062901955403481801520000006670942478690815375_);fill:#E48B68;}
	.st19{clip-path:url(#SVGID_00000062901955403481801520000006670942478690815375_);fill:#F9CAC0;}
	.st20{clip-path:url(#SVGID_00000062901955403481801520000006670942478690815375_);}
	.st21{fill:#FFFFFF;}
	.st22{clip-path:url(#SVGID_00000008861137450328490250000013686937551240228746_);fill:#353C58;}
	.st23{clip-path:url(#SVGID_00000008861137450328490250000013686937551240228746_);fill:#F7AD85;}
	.st24{clip-path:url(#SVGID_00000008861137450328490250000013686937551240228746_);fill:#E48B68;}
	.st25{clip-path:url(#SVGID_00000008861137450328490250000013686937551240228746_);}
	.st26{clip-path:url(#SVGID_00000131334703408124321110000014185975371707135167_);fill:#353C58;}
	.st27{clip-path:url(#SVGID_00000131334703408124321110000014185975371707135167_);fill:#F7AD85;}
	.st28{clip-path:url(#SVGID_00000131334703408124321110000014185975371707135167_);fill:#E48B68;}
	.st29{opacity:0.32;clip-path:url(#SVGID_00000131334703408124321110000014185975371707135167_);fill:#B58B68;}
	.st30{clip-path:url(#SVGID_00000131334703408124321110000014185975371707135167_);}
	.st31{fill:#F7AD85;}
	.st32{fill:#F9CAC0;}
	.st33{clip-path:url(#SVGID_00000096055370108652932580000004929791183674051506_);fill:#353C58;}
	.st34{clip-path:url(#SVGID_00000096055370108652932580000004929791183674051506_);}
	.st35{fill:#E48B68;}
	.st36{clip-path:url(#SVGID_00000157277851753224765890000016564208859914614707_);fill:#353C58;}
	.st37{clip-path:url(#SVGID_00000157277851753224765890000016564208859914614707_);}
	.st38{clip-path:url(#SVGID_00000121978649674662735240000006632069954740096692_);fill:#353C58;}
	.st39{clip-path:url(#SVGID_00000121978649674662735240000006632069954740096692_);}
	.st40{opacity:0.32;fill:#B58B68;}
	.st41{clip-path:url(#SVGID_00000121978649674662735240000006632069954740096692_);fill:#E48B68;}
	.st42{clip-path:url(#SVGID_00000141454853006817519660000009419952023299686075_);fill:#353C58;}
	.st43{clip-path:url(#SVGID_00000141454853006817519660000009419952023299686075_);}
	.st44{clip-path:url(#SVGID_00000141454853006817519660000009419952023299686075_);fill:#E48B68;}
	.st45{clip-path:url(#SVGID_00000116221905533131366660000011709723196566793905_);fill:#353C58;}
	.st46{clip-path:url(#SVGID_00000116221905533131366660000011709723196566793905_);}
	.st47{clip-path:url(#SVGID_00000116221905533131366660000011709723196566793905_);fill:#DB7959;}
	.st48{clip-path:url(#SVGID_00000116221905533131366660000011709723196566793905_);fill:#E72527;}
	.st49{clip-path:url(#SVGID_00000076601066983374442200000010666774392164768402_);fill:#353C58;}
	.st50{clip-path:url(#SVGID_00000076601066983374442200000010666774392164768402_);fill:#F7AD85;}
	.st51{clip-path:url(#SVGID_00000076601066983374442200000010666774392164768402_);fill:#E48B68;}
	.st52{clip-path:url(#SVGID_00000076601066983374442200000010666774392164768402_);fill:#795050;}
	.st53{clip-path:url(#SVGID_00000076601066983374442200000010666774392164768402_);}
	.st54{clip-path:url(#SVGID_00000076601066983374442200000010666774392164768402_);fill:#FFFFFF;}
	.st55{clip-path:url(#SVGID_00000058570757791958913060000005735607850824973722_);fill:#353C58;}
	.st56{clip-path:url(#SVGID_00000058570757791958913060000005735607850824973722_);fill:#F7AD85;}
	.st57{clip-path:url(#SVGID_00000058570757791958913060000005735607850824973722_);fill:#E48B68;}
	.st58{clip-path:url(#SVGID_00000058570757791958913060000005735607850824973722_);fill:#795050;}
	.st59{clip-path:url(#SVGID_00000058570757791958913060000005735607850824973722_);}
	.st60{clip-path:url(#SVGID_00000058570757791958913060000005735607850824973722_);fill:#FFFFFF;}
	.st61{clip-path:url(#SVGID_00000166657797041852874190000007329476509359637945_);fill:#353C58;}
	.st62{clip-path:url(#SVGID_00000166657797041852874190000007329476509359637945_);fill:#E48B68;}
	.st63{clip-path:url(#SVGID_00000166657797041852874190000007329476509359637945_);}
	.st64{fill:#795050;}
	.st65{clip-path:url(#SVGID_00000166657797041852874190000007329476509359637945_);fill:#F7AD85;}
	.st66{clip-path:url(#SVGID_00000166657797041852874190000007329476509359637945_);fill:#FFFFFF;}
	.st67{fill:#353C58;}
	.st68{fill:#DB7959;}
	.st69{fill:#E72527;}
	.st70{fill:url(#SVGID_00000031918899518585462810000001210267939601559436_);}
	.st71{fill:url(#SVGID_00000051358162619696886800000001460636954092080038_);}
	.st72{fill:url(#SVGID_00000163031521725743095090000002181130858454502569_);}
	.st73{fill:url(#SVGID_00000122697356698087394060000011026711546826285461_);}
	.st74{fill:url(#SVGID_00000134941779059695456890000018087325888530445195_);}
	.st75{clip-path:url(#SVGID_00000060030777415162803090000006501173779059593150_);fill:#353C58;}
	.st76{clip-path:url(#SVGID_00000060030777415162803090000006501173779059593150_);}
	.st77{clip-path:url(#SVGID_00000031174058457579034960000009615544502547493810_);fill:#353C58;}
	.st78{clip-path:url(#SVGID_00000031174058457579034960000009615544502547493810_);}
	.st79{clip-path:url(#SVGID_00000039132440494220956810000016136020998458734224_);fill:#353C58;}
	.st80{clip-path:url(#SVGID_00000039132440494220956810000016136020998458734224_);}
	.st81{clip-path:url(#SVGID_00000088094494774112520850000003936212287314379917_);fill:#353C58;}
	.st82{clip-path:url(#SVGID_00000088094494774112520850000003936212287314379917_);}
	.st83{clip-path:url(#SVGID_00000182518040863495302980000015249613742736876976_);fill:#353C58;}
	.st84{clip-path:url(#SVGID_00000182518040863495302980000015249613742736876976_);fill:#F7AD85;}
	.st85{clip-path:url(#SVGID_00000182518040863495302980000015249613742736876976_);fill:#E48B68;}
	.st86{opacity:0.32;clip-path:url(#SVGID_00000182518040863495302980000015249613742736876976_);fill:#B58B68;}
	.st87{clip-path:url(#SVGID_00000182518040863495302980000015249613742736876976_);fill:#F9CAC0;}
	.st88{clip-path:url(#SVGID_00000182518040863495302980000015249613742736876976_);fill:#FFFFFF;}
	.st89{fill:#91CBFF;}
	.st90{fill:#C2EDFF;}
</style>
<g>
	<defs>
		
			<ellipse id="SVGID_00000106128300057053055890000007728289780987252112_" transform="matrix(0.9202 -0.3915 0.3915 0.9202 32.5362 16.8136)" cx="57.5" cy="-71.39" rx="50.27" ry="50.27"/>
	</defs>
	<clipPath id="SVGID_00000005954199139805118940000003543710132096995999_">
		<use xlink:href="#SVGID_00000106128300057053055890000007728289780987252112_"  style="overflow:visible;"/>
	</clipPath>
	<path style="clip-path:url(#SVGID_00000005954199139805118940000003543710132096995999_);fill:#F7AD85;" d="M-4.56,14.55
		c-0.25,1.84-0.48,3.48-0.71,5H15.5c0.99-2.93,2.01-6.08,2.92-9.3c1.31,2.75,2.63,5.89,3.76,9.3h70.64c1.13-3.41,2.45-6.55,3.76-9.3
		c0.91,3.22,1.94,6.37,2.92,9.3h20.76c-0.22-1.52-0.46-3.16-0.71-5c-2.19-16.18,2.03-13.52,0-33.06
		c-2.03-19.54-17.04-22.97-23.76-24.54c-6.72-1.56-20.47-7.23-23.13-9.26c-1.31-1-1.52-6.1-1.39-11.01
		c2.05-3.15,3.12-7.31,3.86-10.95c0.32,0.41,1,1.17,1.61,1.22c0.84,0.06,2.06-2.57,2.44-3.99c0.39-1.42,0.9-6.24,0.32-8.04
		c-0.58-1.8-1.93-0.39-2.38,0.32c-0.16,0.26-0.5,0.5-0.86,0.7c0.13-2.38,0.25-4.76,0.59-7.13c0.68-4.66,0.37-9.15-1.21-13.64
		c-3.33-9.48-16.35-10.15-18.15-10.19v0l0,0l0,0v0c-1.81,0.05-14.82,0.71-18.15,10.19c-1.58,4.49-1.89,8.98-1.21,13.64
		c0.35,2.36,0.46,4.75,0.59,7.13c-0.36-0.2-0.7-0.44-0.86-0.7c-0.45-0.71-1.8-2.12-2.38-0.32c-0.58,1.8-0.06,6.63,0.32,8.04
		c0.39,1.42,1.61,4.05,2.44,3.99c0.61-0.05,1.28-0.81,1.61-1.22c0.75,3.64,1.81,7.8,3.86,10.95c0.13,4.91-0.08,10.01-1.39,11.01
		c-2.66,2.03-16.41,7.7-23.13,9.26c-6.72,1.56-21.72,5-23.76,24.54C-6.59,1.03-2.37-1.63-4.56,14.55z"/>
	<path style="clip-path:url(#SVGID_00000005954199139805118940000003543710132096995999_);fill:#E48B68;" d="M115.34,12.61
		c-1.64-6.97-4.32-13.63-7.7-19.95c-3.1-5.8-7.46-11.49-11.02-17.46c-2.85,3.51-6.19,6.76-9.58,10.02
		c-8.64,8.3-18.2,11.33-30.14,8.66c-11.86-2.65-21.61-9.37-30.67-17.2c-0.27-0.23-0.55-0.47-0.82-0.71
		c-0.15,3.86-0.91,7.68-2.36,11.31c-1.91,4.79-4.25,9.34-6.34,14.05c-2.7,6.1-1.5,10.84-0.98,17.15c0.01,0.13,0,0.25,0,0.38
		c0.92-2.73,1.85-5.63,2.69-8.6c1.31,2.75,2.63,5.89,3.76,9.3h70.64c1.13-3.41,2.45-6.55,3.76-9.3c0.91,3.22,1.94,6.37,2.92,9.3
		h17.25C116.32,17.24,115.88,14.92,115.34,12.61z"/>
	<g style="clip-path:url(#SVGID_00000005954199139805118940000003543710132096995999_);">
		<path class="st31" d="M91.77,30.3c0.51,0.63,1,1.22,1.45,1.74c0.5,0.59,0.87,1.27,1.09,2.01c1.74,5.93,2.66,21.65,5.29,31.71
			c0.27,1.03-0.13,5.52,1.46,9.62c3.26-0.22,8.17-1.77,11.55-2.55c1.19-0.28,2.39-0.54,3.58-0.79
			c-5.33-12.78-12.62-33.22-13.94-45.35c0.26-6.82,3.09-12.33,2.99-15.08c-0.05-1.36-0.73-8.1-0.65-11.37
			c0.08-3.27-3.72-12.59-4.81-12.55c-0.46,0.02-0.81,0.46-0.88,0.78c-0.12,0.51,0.06,0.8,0.44,1.22c-0.37-0.16-0.82-0.78-1.66,0.43
			c-0.83,1.18-0.31,3.56,0.44,6.17c0.38,1.33,0.8,3.88,0.75,3.81c-0.38-0.5-0.57-2.19-0.78-3.29c-0.5-2.59-1.21-5.34-2.73-3.48
			c-0.86,1.06-0.67,3.36-0.13,5.6c0.42,1.72,0.46,3.63,0.62,4.59c0.36,2.2-0.42,7.47-0.42,7.47C92.34,22.48,89.99,28.11,91.77,30.3z
			"/>
		<path class="st35" d="M93.85,32.78c2.05,4.54,2.9,22.09,5.74,32.99c0.27,1.03-0.13,5.52,1.46,9.62c1.51-0.1,4.69-1.38,6.2-1.58
			c-2.17-4.25-3.63-8.88-5.15-13.37c-1.47-4.34-2.68-11.59-2.07-20.14c0.3-4.16-3.46-6.53-5.77-9.8c-2.03-2.86-2.38-5.63-1.75-9.03
			c0.75-4.12,3.35-8.67,3.29-12.85c0-0.27-0.02-0.54-0.04-0.81C95.6,9.51,95.39,11,95.39,11c-3.05,11.49-5.39,17.12-3.62,19.31
			C92.53,31.24,93.26,32.1,93.85,32.78z"/>
		<path class="st35" d="M99.31,7.75c0,0-0.02-6.06-0.48-7.64C98.83,0.1,101.08,3.72,99.31,7.75z"/>
		<path class="st35" d="M101.73,5.53c0,0-0.13-3.1-0.3-7.19c-0.14-3.24-1.57-6.8-2.12-8.27C99.3-9.93,103.7-4.15,101.73,5.53z"/>
	</g>
</g>
<g>
	<defs>
		
			<ellipse id="SVGID_00000129896599136081643460000000307686863001016482_" transform="matrix(0.9202 -0.3915 0.3915 0.9202 -17.4132 26.9973)" cx="57.5" cy="56.2" rx="50.27" ry="50.27"/>
	</defs>
	<clipPath id="SVGID_00000044878879173431697140000005850689780700626578_">
		<use xlink:href="#SVGID_00000129896599136081643460000000307686863001016482_"  style="overflow:visible;"/>
	</clipPath>
	
		<ellipse transform="matrix(0.9202 -0.3915 0.3915 0.9202 -17.4132 26.9973)" style="clip-path:url(#SVGID_00000044878879173431697140000005850689780700626578_);fill:#353C58;" cx="57.5" cy="56.2" rx="50.27" ry="50.27"/>
	<path style="clip-path:url(#SVGID_00000044878879173431697140000005850689780700626578_);fill:#E48B68;" d="M43.07,73.97
		c3.37,2.98,6.65,6.06,11.24,7.36c7.89,2.24,12.92-1.83,18.32-6.1c-1.27-1.08-1.47-6.11-1.35-10.97C71.4,64.1,65.61,74,57.67,74
		c-7.53,0-14.05-9.89-13.95-9.73C43.82,68.04,43.72,71.92,43.07,73.97z"/>
	<path style="clip-path:url(#SVGID_00000044878879173431697140000005850689780700626578_);fill:#E48B68;" d="M115.34,140.2
		c-1.64-6.97-4.32-13.63-7.7-19.95c-3.1-5.8-7.46-11.49-11.02-17.46c-2.85,3.51-6.19,6.76-9.58,10.02
		c-8.64,8.3-18.2,11.33-30.14,8.66c-11.86-2.65-21.61-9.37-30.67-17.2c-0.27-0.23-0.55-0.47-0.82-0.71
		c-0.15,3.86-0.91,7.68-2.36,11.31c-1.91,4.79-4.25,9.34-6.34,14.05c-2.7,6.1-1.5,10.84-0.98,17.15c0.01,0.13,0,0.25,0,0.38
		c0.92-2.73,1.85-5.63,2.69-8.6c1.31,2.75,2.63,5.89,3.76,9.3h70.64c1.13-3.41,2.45-6.55,3.76-9.3c0.91,3.22,1.94,6.37,2.92,9.3
		h17.25C116.32,144.83,115.88,142.51,115.34,140.2z"/>
	<g style="clip-path:url(#SVGID_00000044878879173431697140000005850689780700626578_);">
		<path class="st31" d="M-4.56,165.42c-0.25,1.84-0.48,3.48-0.71,5H15.5c0.99-2.93,2.01-6.08,2.92-9.3c1.31,2.75,2.63,5.89,3.76,9.3
			h70.64c1.13-3.41,2.45-6.55,3.76-9.3c0.91,3.22,1.94,6.37,2.92,9.3h20.76c-0.22-1.52-0.46-3.16-0.71-5
			c-2.19-16.18,2.03-13.52,0-33.06c-2.03-19.54-17.04-22.97-23.76-24.54c-6.72-1.56-20.47-7.23-23.13-9.26
			c-1.31-1-1.52-6.1-1.39-11.01c2.05-3.15,3.12-7.31,3.86-10.95c0.32,0.41,1,1.17,1.61,1.22c0.84,0.06,2.06-2.57,2.44-3.99
			c0.39-1.42,0.9-6.24,0.32-8.04c-0.58-1.8-1.93-0.39-2.38,0.32c-0.16,0.26-0.5,0.5-0.86,0.7c0.13-2.38,0.25-4.76,0.59-7.13
			c0.68-4.66,0.37-9.15-1.21-13.64c-3.33-9.48-16.35-10.15-18.15-10.19v0l0,0l0,0v0c-1.81,0.05-14.82,0.71-18.15,10.19
			c-1.58,4.49-1.89,8.98-1.21,13.64c0.35,2.36,0.46,4.75,0.59,7.13c-0.36-0.2-0.7-0.44-0.86-0.7c-0.45-0.71-1.8-2.12-2.38-0.32
			c-0.58,1.8-0.06,6.63,0.32,8.04c0.39,1.42,1.61,4.05,2.44,3.99c0.61-0.05,1.28-0.81,1.61-1.22c0.75,3.64,1.81,7.8,3.86,10.95
			c0.13,4.91-0.08,10.01-1.39,11.01c-2.66,2.03-16.41,7.7-23.13,9.26c-6.72,1.56-21.72,5-23.76,24.54
			C-6.59,151.9-2.37,149.25-4.56,165.42z"/>
		<path class="st64" d="M67.17,34.87c-3.47-1.12-6.74-1.61-9.79-1.66c-3.05,0.05-6.32,0.54-9.79,1.66
			c-13.77,4.45-12.35,10.5-12.1,16.55c0.25,6.2,1.27,11.13,1.87,13.56c0.06,0.23,0.06,0.47,0.11,0.71c1.04,2.3,1.58,4.85,1.63,7.41
			c0.79,0.12,1.96-1.21,1.87-2.15c-0.14-1.52-0.49-3.53-0.78-7.27c-0.12-1.57,0.26-4.47,0.39-7.49c0.36-8.07,1.78-8.08,7.37-9.43
			c3.08-0.75,5.77-0.34,7.63,0.67c0.56,0.31,1.18,0.48,1.81,0.53c0.62-0.05,1.24-0.22,1.81-0.53c1.86-1.02,4.54-1.42,7.63-0.67
			c2.79,0.68,4.55,1.02,5.64,2.2c1.1,1.18,4.65-0.02,4.56,6.57c-0.04,3.03-2.33,6.59-2.45,8.16c-0.29,3.74-0.64,5.75-0.78,7.27
			c-0.09,0.94,1.09,2.27,1.87,2.15c0.05-2.56,0.59-5.1,1.63-7.41c0.05-0.23,0.05-0.47,0.11-0.71c0.6-2.42,1.63-7.36,1.87-13.56
			C79.51,45.38,80.93,39.32,67.17,34.87z"/>
	</g>
	<path style="clip-path:url(#SVGID_00000044878879173431697140000005850689780700626578_);fill:#FFFFFF;" d="M36.96,22.93l1.36-1.53
		L36.29,20c0.45-0.35,0.9-0.7,1.34-1.04l3.07,1.59l-2.54,1.92l3.34,2.99l-1.51,1.79l2.74,2.97l-3.89-2.38l1.42-2.2L36.96,22.93z"/>
	<path style="clip-path:url(#SVGID_00000044878879173431697140000005850689780700626578_);fill:#FFFFFF;" d="M24.34,45.31
		l-1.07-0.97l-1.88,1.6c-0.22-0.33-0.44-0.66-0.65-0.99l2.35-2.4l1.14,1.87l3.57-2.55l1.18,1.08l3.2-2.02l-2.98,2.84l-1.56-0.98
		L24.34,45.31z"/>
	<polygon style="clip-path:url(#SVGID_00000044878879173431697140000005850689780700626578_);fill:#FFFFFF;" points="37.17,34.91 
		33.35,34.82 33.22,33.24 28.82,33.39 29.34,31.23 24.5,32.22 24.5,33.23 28.2,32.79 28.26,34.2 32.47,33.92 32.95,35.64 	"/>
	<path style="clip-path:url(#SVGID_00000044878879173431697140000005850689780700626578_);fill:#FFFFFF;" d="M78.49,22.93
		l-1.36-1.53l2.04-1.4c-0.45-0.35-0.9-0.7-1.34-1.04l-3.07,1.59l2.54,1.92l-3.34,2.99l1.51,1.79l-2.74,2.97l3.89-2.38l-1.42-2.2
		L78.49,22.93z"/>
	<path style="clip-path:url(#SVGID_00000044878879173431697140000005850689780700626578_);fill:#FFFFFF;" d="M91.11,45.31l1.07-0.97
		l1.88,1.6c0.22-0.33,0.44-0.66,0.65-0.99l-2.35-2.4l-1.14,1.87l-3.57-2.55l-1.18,1.08l-3.2-2.02l2.98,2.84l1.56-0.98L91.11,45.31z"
		/>
	<polygon style="clip-path:url(#SVGID_00000044878879173431697140000005850689780700626578_);fill:#FFFFFF;" points="78.28,34.91 
		82.1,34.82 82.23,33.24 86.62,33.39 86.1,31.23 90.95,32.22 90.95,33.23 87.25,32.79 87.19,34.2 82.98,33.92 82.5,35.64 	"/>
</g>
</svg>
