<?xml version="1.0" encoding="utf-8"?>
<!-- Generator: Adobe Illustrator 27.2.0, SVG Export Plug-In . SVG Version: 6.00 Build 0)  -->
<svg version="1.1" id="Layer_1" xmlns="http://www.w3.org/2000/svg" xmlns:xlink="http://www.w3.org/1999/xlink" x="0px" y="0px"
	 viewBox="0 0 115.01 112.41" style="enable-background:new 0 0 115.01 112.41;" xml:space="preserve">
<style type="text/css">
	.st0{clip-path:url(#SVGID_00000103967572533691119910000000732243433506329258_);fill:#353C58;}
	.st1{clip-path:url(#SVGID_00000103967572533691119910000000732243433506329258_);fill:#F7AD85;}
	.st2{clip-path:url(#SVGID_00000103967572533691119910000000732243433506329258_);fill:#E48B68;}
	.st3{opacity:0.32;clip-path:url(#SVGID_00000103967572533691119910000000732243433506329258_);fill:#B58B68;}
	.st4{clip-path:url(#SVGID_00000103967572533691119910000000732243433506329258_);fill:#F9CAC0;}
	.st5{clip-path:url(#SVGID_00000103967572533691119910000000732243433506329258_);fill:#FFFFFF;}
	.st6{clip-path:url(#SVGID_00000174566860569707823090000007379982453748118708_);fill:#353C58;}
	.st7{clip-path:url(#SVGID_00000174566860569707823090000007379982453748118708_);fill:#F7AD85;}
	.st8{clip-path:url(#SVGID_00000174566860569707823090000007379982453748118708_);fill:#E48B68;}
	.st9{opacity:0.32;clip-path:url(#SVGID_00000174566860569707823090000007379982453748118708_);fill:#B58B68;}
	.st10{clip-path:url(#SVGID_00000174566860569707823090000007379982453748118708_);fill:#F9CAC0;}
	.st11{clip-path:url(#SVGID_00000174566860569707823090000007379982453748118708_);fill:#FFFFFF;}
	.st12{clip-path:url(#SVGID_00000178901110372213603220000017913090908341740181_);fill:#353C58;}
	.st13{clip-path:url(#SVGID_00000178901110372213603220000017913090908341740181_);fill:#F7AD85;}
	.st14{clip-path:url(#SVGID_00000178901110372213603220000017913090908341740181_);fill:#E48B68;}
	.st15{clip-path:url(#SVGID_00000178901110372213603220000017913090908341740181_);fill:#FFFFFF;}
	.st16{clip-path:url(#SVGID_00000058580342072575919990000003547576934292251319_);fill:#353C58;}
	.st17{clip-path:url(#SVGID_00000058580342072575919990000003547576934292251319_);fill:#F7AD85;}
	.st18{clip-path:url(#SVGID_00000058580342072575919990000003547576934292251319_);fill:#E48B68;}
	.st19{clip-path:url(#SVGID_00000058580342072575919990000003547576934292251319_);fill:#F9CAC0;}
	.st20{clip-path:url(#SVGID_00000058580342072575919990000003547576934292251319_);}
	.st21{fill:#FFFFFF;}
	.st22{clip-path:url(#SVGID_00000031917239130872356120000009473625924835869592_);fill:#353C58;}
	.st23{clip-path:url(#SVGID_00000031917239130872356120000009473625924835869592_);fill:#F7AD85;}
	.st24{clip-path:url(#SVGID_00000031917239130872356120000009473625924835869592_);fill:#E48B68;}
	.st25{clip-path:url(#SVGID_00000031917239130872356120000009473625924835869592_);}
	.st26{clip-path:url(#SVGID_00000060019506460068429660000017710109084086521992_);fill:#353C58;}
	.st27{clip-path:url(#SVGID_00000060019506460068429660000017710109084086521992_);fill:#F7AD85;}
	.st28{clip-path:url(#SVGID_00000060019506460068429660000017710109084086521992_);fill:#E48B68;}
	.st29{opacity:0.32;clip-path:url(#SVGID_00000060019506460068429660000017710109084086521992_);fill:#B58B68;}
	.st30{clip-path:url(#SVGID_00000060019506460068429660000017710109084086521992_);}
	.st31{fill:#F7AD85;}
	.st32{fill:#F9CAC0;}
	.st33{clip-path:url(#SVGID_00000001652292020630998820000011020343813770562206_);fill:#353C58;}
	.st34{clip-path:url(#SVGID_00000001652292020630998820000011020343813770562206_);}
	.st35{fill:#E48B68;}
	.st36{clip-path:url(#SVGID_00000052089056935581366520000011274142283673341591_);fill:#353C58;}
	.st37{clip-path:url(#SVGID_00000052089056935581366520000011274142283673341591_);}
	.st38{clip-path:url(#SVGID_00000145778186159221452750000008256487058719765408_);fill:#353C58;}
	.st39{clip-path:url(#SVGID_00000145778186159221452750000008256487058719765408_);}
	.st40{opacity:0.32;fill:#B58B68;}
	.st41{clip-path:url(#SVGID_00000145778186159221452750000008256487058719765408_);fill:#E48B68;}
	.st42{clip-path:url(#SVGID_00000033357764422719527150000014678972696194703020_);fill:#353C58;}
	.st43{clip-path:url(#SVGID_00000033357764422719527150000014678972696194703020_);}
	.st44{clip-path:url(#SVGID_00000033357764422719527150000014678972696194703020_);fill:#E48B68;}
	.st45{clip-path:url(#SVGID_00000083061143372082872310000016889393220452689055_);fill:#353C58;}
	.st46{clip-path:url(#SVGID_00000083061143372082872310000016889393220452689055_);}
	.st47{clip-path:url(#SVGID_00000083061143372082872310000016889393220452689055_);fill:#DB7959;}
	.st48{clip-path:url(#SVGID_00000083061143372082872310000016889393220452689055_);fill:#E72527;}
	.st49{clip-path:url(#SVGID_00000155119797492364110020000008680885363955588010_);fill:#353C58;}
	.st50{clip-path:url(#SVGID_00000155119797492364110020000008680885363955588010_);fill:#F7AD85;}
	.st51{clip-path:url(#SVGID_00000155119797492364110020000008680885363955588010_);fill:#E48B68;}
	.st52{clip-path:url(#SVGID_00000155119797492364110020000008680885363955588010_);fill:#795050;}
	.st53{clip-path:url(#SVGID_00000155119797492364110020000008680885363955588010_);}
	.st54{clip-path:url(#SVGID_00000155119797492364110020000008680885363955588010_);fill:#FFFFFF;}
	.st55{clip-path:url(#SVGID_00000085960655091219731520000002931666799059664800_);fill:#353C58;}
	.st56{clip-path:url(#SVGID_00000085960655091219731520000002931666799059664800_);fill:#F7AD85;}
	.st57{clip-path:url(#SVGID_00000085960655091219731520000002931666799059664800_);fill:#E48B68;}
	.st58{clip-path:url(#SVGID_00000085960655091219731520000002931666799059664800_);fill:#795050;}
	.st59{clip-path:url(#SVGID_00000085960655091219731520000002931666799059664800_);}
	.st60{clip-path:url(#SVGID_00000085960655091219731520000002931666799059664800_);fill:#FFFFFF;}
	.st61{clip-path:url(#SVGID_00000104690186190436403980000010113495730488926612_);fill:#353C58;}
	.st62{clip-path:url(#SVGID_00000104690186190436403980000010113495730488926612_);fill:#E48B68;}
	.st63{clip-path:url(#SVGID_00000104690186190436403980000010113495730488926612_);}
	.st64{fill:#795050;}
	.st65{clip-path:url(#SVGID_00000104690186190436403980000010113495730488926612_);fill:#F7AD85;}
	.st66{clip-path:url(#SVGID_00000104690186190436403980000010113495730488926612_);fill:#FFFFFF;}
	.st67{fill:#353C58;}
	.st68{fill:#DB7959;}
	.st69{fill:#E72527;}
	.st70{fill:url(#SVGID_00000013875580148356962170000003543320835460174764_);}
	.st71{fill:url(#SVGID_00000117649225642555091280000005929864983594109086_);}
	.st72{fill:url(#SVGID_00000134960870020206236200000012198852163974826933_);}
	.st73{fill:url(#SVGID_00000008122476733209022620000011039761779414180519_);}
	.st74{fill:url(#SVGID_00000005983321695754635860000006782489316243969196_);}
	.st75{clip-path:url(#SVGID_00000075143533037672960900000011545035160724986794_);fill:#353C58;}
	.st76{clip-path:url(#SVGID_00000075143533037672960900000011545035160724986794_);}
	.st77{clip-path:url(#SVGID_00000180330730188850522650000010150889065472706984_);fill:#353C58;}
	.st78{clip-path:url(#SVGID_00000180330730188850522650000010150889065472706984_);}
	.st79{clip-path:url(#SVGID_00000034771626513095415220000010876833572152841369_);fill:#353C58;}
	.st80{clip-path:url(#SVGID_00000034771626513095415220000010876833572152841369_);}
	.st81{clip-path:url(#SVGID_00000158714021113491475060000016918632298918780061_);fill:#353C58;}
	.st82{clip-path:url(#SVGID_00000158714021113491475060000016918632298918780061_);}
	.st83{clip-path:url(#SVGID_00000148639607555224036000000013720531188092100270_);fill:#353C58;}
	.st84{clip-path:url(#SVGID_00000148639607555224036000000013720531188092100270_);fill:#F7AD85;}
	.st85{clip-path:url(#SVGID_00000148639607555224036000000013720531188092100270_);fill:#E48B68;}
	.st86{opacity:0.32;clip-path:url(#SVGID_00000148639607555224036000000013720531188092100270_);fill:#B58B68;}
	.st87{clip-path:url(#SVGID_00000148639607555224036000000013720531188092100270_);fill:#F9CAC0;}
	.st88{clip-path:url(#SVGID_00000148639607555224036000000013720531188092100270_);fill:#FFFFFF;}
	.st89{fill:#91CBFF;}
	.st90{fill:#C2EDFF;}
</style>
<g>
	<defs>
		<circle id="SVGID_00000183209558277202364280000011353879383048370343_" cx="57.5" cy="56.2" r="50.27"/>
	</defs>
	<clipPath id="SVGID_00000163037396862275596670000014842180137795853755_">
		<use xlink:href="#SVGID_00000183209558277202364280000011353879383048370343_"  style="overflow:visible;"/>
	</clipPath>
	
		<circle style="clip-path:url(#SVGID_00000163037396862275596670000014842180137795853755_);fill:#353C58;" cx="57.5" cy="56.2" r="50.27"/>
	<g style="clip-path:url(#SVGID_00000163037396862275596670000014842180137795853755_);">
		<path class="st21" d="M43.73,87.88l-0.11,1.83l-2.51-0.58c0.07,0.51,0.16,1.01,0.24,1.51l3.41,1.2l-0.48-2.86l4.75,0.57l0.21-2.12
			l4.46,0.14l-4.88-1.29l-0.59,2.3L43.73,87.88z"/>
		<path class="st21" d="M42.37,74.45l-1.19,1.39l-1.65-1.98c-0.25,0.45-0.48,0.9-0.72,1.35l1.99,3.01l1.34-2.57l3.45,3.32l1.45-1.57
			l3.47,2.8l-3.12-3.98l-1.86,1.48L42.37,74.45z"/>
		<path class="st21" d="M63.88,55.06l-1.69-0.7l1.38-2.17c-0.5-0.1-1-0.18-1.5-0.27l-2.26,2.82l2.86,0.49l-2.1,4.3l1.94,0.89
			l-1.6,4.16l2.83-4.19l-1.98-1.31L63.88,55.06z"/>
		<path class="st21" d="M54.16,58.18L52.19,59l-0.83-3.13c-0.47,0.37-0.92,0.74-1.35,1.11l0.75,4.22l2.55-1.83l1.96,5.31l2.4-0.6
			l2.1,4.68l-1-5.62l-2.9,0.32L54.16,58.18z"/>
	</g>
	<g style="clip-path:url(#SVGID_00000163037396862275596670000014842180137795853755_);">
		<path class="st31" d="M80.7-4.68c0,0,0.93,11.17-1.71,12.41c-2.64,1.24-19.23,5.12-19.23,6.83c0,1.46,7.69,22.31,6.55,40.83
			c-0.31,4.99-1.18,8.84-3.58,13.23l-3.17,5.79c-0.03,0.07-0.07,0.14-0.1,0.21c-5.21,10.95-5.23,23.66-0.41,34.78l0.7,1.62
			l52.62-14.85l0.17-50.97L96.68-4.68H80.7z"/>
		<path class="st35" d="M94.76,104.83c-1.1-6.12-0.94-13.07,0.71-19.07c0.6-2.17,1.59-4.98,2.96-7.69
			c-1.09,0.72-2.54,1.63-4.02,2.55c-4.17,2.57-9.43,2.57-13.6,0c-1.49-0.92-2.94-1.83-4.02-2.55c1.37,2.71,2.36,5.52,2.96,7.69
			c1.65,6,1.81,12.96,0.71,19.07c-0.7,3.89-1.72,7.72-2.06,11.59l9.21-2.6l9.21,2.6C96.48,112.55,95.45,108.72,94.76,104.83z"/>
		<path class="st35" d="M58.69,87.47c1.26-5.27,3.91-10.07,6.48-14.88c1.69-5.73,3.97-9.13,5.32-17.54
			c1.6-9.97-5.5-17.47-2.68-25.22c1.18-3.23-2.68-5.9-4.01-7.97c-1.28-2-1.12-5.67-2.64-7.55c-0.17-0.21-0.31-0.44-0.45-0.66
			c-0.71,0.36-1.12,0.68-1.12,0.95c0,0.84-1.35,8.58,3.11,17.35c2.69,5.29,4.22,15.28,3.44,23.48c-0.47,4.97-1.18,8.84-3.58,13.23
			l-3.17,5.79c-0.03,0.07-0.07,0.14-0.1,0.21c-0.65,1.37-1.22,2.76-1.71,4.18c-0.24,0.71-0.47,1.42-0.67,2.14
			c-1.02,3.59-1.55,7.29-1.58,11c-0.01,0.74,0.01,1.48,0.04,2.23c0.13,2.97,0.57,5.93,1.32,8.83c0.56,2.18,1.29,4.32,2.2,6.4
			l0.7,1.62l2.53-0.71C58.43,103.36,56.87,95.06,58.69,87.47z"/>
		<path class="st40" d="M61.16,105.28c0.29-1.63,1.08-3.3,2.22-4.49c0.19-0.43,0.42-0.84,0.67-1.2c1.38-1.96,3.56-3.97,5.89-4.75
			c0.07-0.29,0.14-0.58,0.24-0.87c0.39-1.41,1.28-2.42,1.58-3.85c-0.47-1.81-0.86-3.69-0.8-5.39c0.1-3.07,3.22-3.82-0.06-6.62
			c-2.26-1.92-5.4-3.38-8.01-5.26c-0.72-0.16-1.45-0.43-2.13-0.79l-1.36,2.49c-0.03,0.07-0.07,0.14-0.1,0.21
			c-5.21,10.95-5.23,23.66-0.41,34.78l0.7,1.62l1.73-0.49C60.87,108.99,60.82,107.19,61.16,105.28z"/>
		<path class="st35" d="M88.16,64.26c0,1.2-0.4,2.18-0.9,2.18c-0.49,0-0.9-0.97-0.9-2.18c0-1.2,0.4-2.18,0.9-2.18
			C87.76,62.09,88.16,63.06,88.16,64.26z"/>
		<path class="st35" d="M79.72,17.2c-2.05-0.35-4.19-0.82-6.28-0.93c-1.49-0.08-3.35,0.24-4.77-0.32c-1.23-0.49-2.41-1.04-3.59-1.56
			c1.23-0.42,2.61-0.85,4.03-1.27c2.2,0.32,4.36,0.85,6.58,1.22c2.31,0.38,4.48,0.76,6.47,2.08c0.9,0.6,1.74,1.28,2.55,2.01
			C83.11,17.87,81.41,17.5,79.72,17.2z"/>
		<path class="st35" d="M108.91,102.98c1.42-3.24,3.21-6.8,3.44-10.4c0.28-4.25-0.29-8.42-1.5-12.42c0.02-1.1-0.01-2.19-0.11-3.25
			c-0.13-1.35-0.39-2.68-0.74-3.99c-1.71-5.96-4.05-9.32-5.43-17.91c-1.6-9.97,5.5-17.47,2.68-25.22c-1.18-3.23,2.68-5.9,4.01-7.97
			c1.28-2,1.12-5.67,2.64-7.55c0.17-0.21,0.31-0.44,0.45-0.66c0.71,0.36,1.12,0.68,1.12,0.95c0,0.84,1.35,8.58-3.11,17.35
			c-2.69,5.29-4.51,14.9-3.44,23.48c0.62,4.96,1.18,8.84,3.58,13.23l3.17,5.79c0.03,0.07,0.07,0.14,0.1,0.21
			c0.65,1.37,1.22,2.76,1.71,4.18c0.24,0.71,0.47,1.42,0.67,2.14c1.02,3.59,1.55,7.29,1.58,11c0.01,0.74-0.01,1.48-0.04,2.23
			c-0.13,2.97-0.57,5.93-1.32,8.83c-0.56,2.18-1.29,4.32-2.2,6.4l-0.7,1.62l-9.28-2.62C107.38,106.37,108.31,104.36,108.91,102.98z"
			/>
	</g>
	<g style="clip-path:url(#SVGID_00000163037396862275596670000014842180137795853755_);">
		<g>
			<path class="st31" d="M71.5,91.46c-0.79-0.5-1.52-1.7-3.01-3.7c-1.49-2.01-3.2-3.51-3.39-3.47c-0.29,0.07,1.39,2.89,2.82,5.1
				c0.9,1.38,1.43,2.59,1.86,3.33c0.81,1.39,0.17,2.41-0.44,2.4c-1.14-0.02-2.59-3.18-3.49-4.55c-0.5-0.76-2.06-3.35-3.15-4.69
				c-0.09-0.11-0.26-0.02-0.22,0.12c0.42,1.33,1.58,4.14,2.04,4.94c0.61,1.07,1.28,2.33,1.46,3.17c0.11,0.54,0,0.81-0.28,1.08
				c-0.85,0.82-2.78-2.44-4.01-4.76c-0.35-0.66-0.65-1.33-0.91-2.03c-0.36-0.96-0.56-1.47-0.89-2.17c-0.07-0.15-0.5-1.02-0.67-0.46
				c-0.06,0.21,0.01,0.51,0.02,0.73c0.02,0.3,0.46,2.57,0.72,3.38c0.52,1.62,1.03,2.85-0.14,3.05c-0.6,0.11-1.01-0.8-1.32-1.54
				c-0.09-0.21-0.51-1.38-0.84-2.55c-0.44-1.54-0.8-3.45-0.96-4c-0.28-0.97-2.42-6.16-3.63-8.06c-0.92-1.44-3.1-4.09-4.13-5.7
				c0.86-1.35,1.93-2.14,3.39-3.02c0.77-0.46,1.25-1.51,1.25-1.51c-0.36-0.46,3.61,3.9,5.41,4.61c2.09,0.82,5.51,1.64,6.75,2.52
				c1.24,0.89,1.79,1.84,3.69,3.7c2.45,2.39,3.7,2.73,3.7,3.55c0,0.34-1.51,1.82-5.06-1.32c-0.65-0.57-2.81-2.09-3.32-1.73
				c-0.56,0.4,1.03,2.15,1.46,2.89c0.38,0.64,2.11,2.44,3.5,4.55c1.13,1.72,3.7,4.71,2.85,5.78C72.26,91.49,71.85,91.68,71.5,91.46z
				"/>
			<path class="st32" d="M70.42,78.3c-0.2,0.12-0.25,0.36-0.27,0.69c-0.03,0.38,0.05,0.49,0.33,0.7c0.58,0.42,1.17,0.84,1.58,1
				c0.77,0.31,0.91-0.18,0.61-0.53C72.41,79.85,70.82,78.44,70.42,78.3z"/>
			<path class="st32" d="M72.8,90.62c-0.08-0.75-0.55-1.82-1.05-1.82c-0.51,0-1.15,0.31-1.28,0.96c-0.08,0.41,0.19,0.75,0.41,1.05
				c0.24,0.33,0.37,0.68,0.82,0.72C72.07,91.57,72.88,91.38,72.8,90.62z"/>
			<path class="st32" d="M70.28,94.33c-0.04-0.39-0.17-0.88-0.36-1.22c-0.25-0.45-0.49-0.63-1.03-0.37
				c-0.37,0.18-0.85,0.49-0.77,0.94c0.08,0.42,0.46,1.01,0.77,1.26C69.48,95.42,70.33,94.75,70.28,94.33z"/>
			<path class="st32" d="M66.08,94.5c-0.14-0.8-0.67-2.09-1.68-1.54c-0.97,0.52-0.3,1.66,0.31,2.21
				C65.42,95.82,66.17,95.02,66.08,94.5z"/>
			<path class="st32" d="M60.56,92.4c-0.07-0.79-0.42-2.04-1.52-1.65c-0.54,0.19-0.59,0.67-0.37,1.14c0.18,0.39,0.39,0.96,0.85,1.13
				C59.9,93.15,60.61,92.93,60.56,92.4z"/>
			<path class="st35" d="M64.39,77.28c-0.51,0.21-0.69,0.41-0.1,1.3c0.64,0.94,1.61,1.87,1.8,2.02c-0.5-0.74-1.62-2.06-1.43-2.57
				l0,0c0.01-0.02,0.02-0.04,0.03-0.06c0.02-0.02,0.03-0.05,0.06-0.06c0.03-0.02,0.06-0.03,0.1-0.04c0.01,0,0.03,0,0.04-0.01
				c0.03,0,0.06-0.01,0.09,0c0.02,0,0.04,0,0.05,0c0.04,0,0.07,0.01,0.11,0.02c0.02,0,0.03,0,0.05,0.01
				c0.83,0.2,2.35,1.29,2.87,1.75c1.13,1,2.05,1.53,2.78,1.78c-1.2-0.71-2.29-1.71-3.2-2.6C67.21,78.36,65.57,76.93,64.39,77.28z"/>
		</g>
		<g>
			<path class="st31" d="M58.04,78c1.63-2,3.59-3.2,4.6-5.59c-1.18-0.14-4.86-2.28-5.48-2.72c-3.05-2.15-6.91-6.72-11.7-11.31
				c-5.75-5.53-5.12-6.28-9.75-9.22c0,0,2.26-0.65,6.78-3.31c1.35-0.79,7.39-2.82,11.58-9.06c4.19-6.24,7.83-4.82,8.8-4.89
				c0.97-0.06,17.27-8.2,17.37-13.75c0,0-3.36-0.32-8.47-4.54c-5.12-4.22-14.19-4.07-22.21,5.4c-8.02,9.46-8.83,9.35-14.21,13.48
				c-5.38,4.12-16.39,15.68-13.76,21.83c0.71,1.66,4.07,3.49,7.13,5.9c8.31,6.55,21.76,12.95,26.17,15.58
				C55.86,76.38,57.42,77.46,58.04,78z"/>
			<path class="st35" d="M52.7,76.24c-0.19-0.4-0.58-1.22-1.04-2.14l0,0c0,0,0,0,0,0c-0.7-1.42-2.33-2.5-4.01-3.64
				c-0.82-0.56-1.84-1.23-2.65-1.84c-4.44-3.4-7.67-6.73-12.92-8.9c-4.49-1.86-8.91-4.35-10.85-7.98c-0.07,0.94,0.04,1.81,0.38,2.6
				c0.71,1.66,4.07,3.49,7.13,5.9c5.76,4.54,14.23,9.2,20.27,12.44c1.05,0.56,1.97,1.33,2.69,2.28
				C52.02,75.39,52.37,75.83,52.7,76.24z"/>
			<path class="st35" d="M62.87,31.91c0.31-0.02,2.13-0.84,4.49-2.13c-1.34-1.12-2.84-2.05-4.29-1.69c-2.01,0.5-3.96,1.37-5.35,2.96
				c-0.93,1.07-1.31,2.05-1.45,3.06C59.49,31.03,62.08,31.96,62.87,31.91z"/>
			<path class="st35" d="M63.07,28.1c-2.73,0.21-6.68,2.95-8.17,4c-2.95,2.08-2.98,6.13-5.94,8.35c-3.22,2.41-7.2,3.12-10.57,5.24
				c-1.71,1.08-3.4,2.16-5.05,3.31c-0.32,0.23-0.2,0.55,0.18,0.67c0.82,0.26,1.85,0.74,2.28,1.11c3.47,3.01,5.74,4.33,9.19,8.17
				c2.59,2.88,3.66,2.6,8.84,7.87c-2.4-2.33-5.18-5.38-8.37-8.44c-5.75-5.53-5.12-6.28-9.75-9.22c0,0,2.26-0.65,6.78-3.31
				c1.35-0.79,7.39-2.82,11.58-9.06c4.19-6.24,7.83-4.82,8.8-4.89c0.15-0.01,4.26-2.07,4.99-2.4C66.65,27.84,65.33,27.92,63.07,28.1
				z"/>
			<path class="st35" d="M30.88,59.88c-3.26-1.3-7.62-3.87-7.86-7.85c-0.23-3.78,2.25-8,4.37-11c3.04-4.29,7.25-6.58,11.68-9.22
				c2.1-1.25,5.08-2.28,6.64-4.21c1.42-1.75,1.76-4.05,3.11-5.81c2.91-3.76,6.05-7.37,10.42-9.41c1.42-0.66,2.73-1.11,4.01-1.38
				c-4.3,0.29-9.16,2.67-13.69,8.01c-8.02,9.46-8.83,9.35-14.21,13.48c-5.38,4.12-16.39,15.68-13.76,21.83
				c0.71,1.66,4.07,3.49,7.13,5.9c3.56,2.8,8.06,5.58,12.39,8.05C38.12,64.94,35.11,61.57,30.88,59.88z"/>
		</g>
	</g>
	<path style="clip-path:url(#SVGID_00000163037396862275596670000014842180137795853755_);fill:#E48B68;" d="M86.41,43.19
		c0,0-5.25,2.75-10.48,2.94c-3.32,0.12-6.84-1.62-8.35-3.07c0,0,3.74,6.19,9.95,5.11C82.9,47.24,86.41,43.19,86.41,43.19z"/>
	<path style="clip-path:url(#SVGID_00000163037396862275596670000014842180137795853755_);fill:#E48B68;" d="M90.15,43.19
		c0,0,5.25,2.75,10.48,2.94c3.32,0.12,6.84-1.62,8.35-3.07c0,0-3.74,6.19-9.95,5.11C93.66,47.24,90.15,43.19,90.15,43.19z"/>
</g>
</svg>
