<?xml version="1.0" encoding="utf-8"?>
<!-- Generator: Adobe Illustrator 27.2.0, SVG Export Plug-In . SVG Version: 6.00 Build 0)  -->
<svg version="1.1" id="Layer_1" xmlns="http://www.w3.org/2000/svg" xmlns:xlink="http://www.w3.org/1999/xlink" x="0px" y="0px"
	 viewBox="0 0 115.01 112.41" style="enable-background:new 0 0 115.01 112.41;" xml:space="preserve">
<style type="text/css">
	.st0{clip-path:url(#SVGID_00000129196438536682773750000009662469045668225155_);fill:#353C58;}
	.st1{clip-path:url(#SVGID_00000129196438536682773750000009662469045668225155_);fill:#F7AD85;}
	.st2{clip-path:url(#SVGID_00000129196438536682773750000009662469045668225155_);fill:#E48B68;}
	.st3{opacity:0.32;clip-path:url(#SVGID_00000129196438536682773750000009662469045668225155_);fill:#B58B68;}
	.st4{clip-path:url(#SVGID_00000129196438536682773750000009662469045668225155_);fill:#F9CAC0;}
	.st5{clip-path:url(#SVGID_00000129196438536682773750000009662469045668225155_);fill:#FFFFFF;}
	.st6{clip-path:url(#SVGID_00000039842663005134018940000015712705591275575451_);fill:#353C58;}
	.st7{clip-path:url(#SVGID_00000039842663005134018940000015712705591275575451_);fill:#F7AD85;}
	.st8{clip-path:url(#SVGID_00000039842663005134018940000015712705591275575451_);fill:#E48B68;}
	.st9{opacity:0.32;clip-path:url(#SVGID_00000039842663005134018940000015712705591275575451_);fill:#B58B68;}
	.st10{clip-path:url(#SVGID_00000039842663005134018940000015712705591275575451_);fill:#F9CAC0;}
	.st11{clip-path:url(#SVGID_00000039842663005134018940000015712705591275575451_);fill:#FFFFFF;}
	.st12{clip-path:url(#SVGID_00000076575273252256234930000014244143286054244237_);fill:#353C58;}
	.st13{clip-path:url(#SVGID_00000076575273252256234930000014244143286054244237_);fill:#F7AD85;}
	.st14{clip-path:url(#SVGID_00000076575273252256234930000014244143286054244237_);fill:#E48B68;}
	.st15{clip-path:url(#SVGID_00000076575273252256234930000014244143286054244237_);fill:#FFFFFF;}
	.st16{clip-path:url(#SVGID_00000046340722855764990230000002020616905206941072_);fill:#353C58;}
	.st17{clip-path:url(#SVGID_00000046340722855764990230000002020616905206941072_);fill:#F7AD85;}
	.st18{clip-path:url(#SVGID_00000046340722855764990230000002020616905206941072_);fill:#E48B68;}
	.st19{clip-path:url(#SVGID_00000046340722855764990230000002020616905206941072_);fill:#F9CAC0;}
	.st20{clip-path:url(#SVGID_00000046340722855764990230000002020616905206941072_);}
	.st21{fill:#FFFFFF;}
	.st22{clip-path:url(#SVGID_00000013904391235149597100000017356115911422945954_);fill:#353C58;}
	.st23{clip-path:url(#SVGID_00000013904391235149597100000017356115911422945954_);fill:#F7AD85;}
	.st24{clip-path:url(#SVGID_00000013904391235149597100000017356115911422945954_);fill:#E48B68;}
	.st25{clip-path:url(#SVGID_00000013904391235149597100000017356115911422945954_);}
	.st26{clip-path:url(#SVGID_00000100361265899368770250000007371834995193089166_);fill:#353C58;}
	.st27{clip-path:url(#SVGID_00000100361265899368770250000007371834995193089166_);fill:#F7AD85;}
	.st28{clip-path:url(#SVGID_00000100361265899368770250000007371834995193089166_);fill:#E48B68;}
	.st29{opacity:0.32;clip-path:url(#SVGID_00000100361265899368770250000007371834995193089166_);fill:#B58B68;}
	.st30{clip-path:url(#SVGID_00000100361265899368770250000007371834995193089166_);}
	.st31{fill:#F7AD85;}
	.st32{fill:#F9CAC0;}
	.st33{clip-path:url(#SVGID_00000129174582894184165930000010739013235453767330_);fill:#353C58;}
	.st34{clip-path:url(#SVGID_00000129174582894184165930000010739013235453767330_);}
	.st35{fill:#E48B68;}
	.st36{clip-path:url(#SVGID_00000151523362096314760440000007875896610093766839_);fill:#353C58;}
	.st37{clip-path:url(#SVGID_00000151523362096314760440000007875896610093766839_);}
	.st38{clip-path:url(#SVGID_00000182522874522006070780000006853652492185190847_);fill:#353C58;}
	.st39{clip-path:url(#SVGID_00000182522874522006070780000006853652492185190847_);}
	.st40{opacity:0.32;fill:#B58B68;}
	.st41{clip-path:url(#SVGID_00000182522874522006070780000006853652492185190847_);fill:#E48B68;}
	.st42{clip-path:url(#SVGID_00000166656997983033889380000003646091476802206143_);fill:#353C58;}
	.st43{clip-path:url(#SVGID_00000166656997983033889380000003646091476802206143_);}
	.st44{clip-path:url(#SVGID_00000166656997983033889380000003646091476802206143_);fill:#E48B68;}
	.st45{clip-path:url(#SVGID_00000040551161700412862090000007162748906544689035_);fill:#353C58;}
	.st46{clip-path:url(#SVGID_00000040551161700412862090000007162748906544689035_);}
	.st47{clip-path:url(#SVGID_00000040551161700412862090000007162748906544689035_);fill:#DB7959;}
	.st48{clip-path:url(#SVGID_00000040551161700412862090000007162748906544689035_);fill:#E72527;}
	.st49{clip-path:url(#SVGID_00000024689801015717324410000013084470907353778313_);fill:#353C58;}
	.st50{clip-path:url(#SVGID_00000024689801015717324410000013084470907353778313_);fill:#F7AD85;}
	.st51{clip-path:url(#SVGID_00000024689801015717324410000013084470907353778313_);fill:#E48B68;}
	.st52{clip-path:url(#SVGID_00000024689801015717324410000013084470907353778313_);fill:#795050;}
	.st53{clip-path:url(#SVGID_00000024689801015717324410000013084470907353778313_);}
	.st54{clip-path:url(#SVGID_00000024689801015717324410000013084470907353778313_);fill:#FFFFFF;}
	.st55{clip-path:url(#SVGID_00000091015358171265174420000002814827156405985945_);fill:#353C58;}
	.st56{clip-path:url(#SVGID_00000091015358171265174420000002814827156405985945_);fill:#F7AD85;}
	.st57{clip-path:url(#SVGID_00000091015358171265174420000002814827156405985945_);fill:#E48B68;}
	.st58{clip-path:url(#SVGID_00000091015358171265174420000002814827156405985945_);fill:#795050;}
	.st59{clip-path:url(#SVGID_00000091015358171265174420000002814827156405985945_);}
	.st60{clip-path:url(#SVGID_00000091015358171265174420000002814827156405985945_);fill:#FFFFFF;}
	.st61{clip-path:url(#SVGID_00000095323490474592248110000010684793478472326799_);fill:#353C58;}
	.st62{clip-path:url(#SVGID_00000095323490474592248110000010684793478472326799_);fill:#E48B68;}
	.st63{clip-path:url(#SVGID_00000095323490474592248110000010684793478472326799_);}
	.st64{fill:#795050;}
	.st65{clip-path:url(#SVGID_00000095323490474592248110000010684793478472326799_);fill:#F7AD85;}
	.st66{clip-path:url(#SVGID_00000095323490474592248110000010684793478472326799_);fill:#FFFFFF;}
	.st67{fill:#353C58;}
	.st68{fill:#DB7959;}
	.st69{fill:#E72527;}
	.st70{fill:url(#SVGID_00000059282081429075569340000002103670231210370979_);}
	.st71{fill:url(#SVGID_00000164484301195450609090000014439358069505028252_);}
	.st72{fill:url(#SVGID_00000139272391983185838480000003730396209901332132_);}
	.st73{fill:url(#SVGID_00000152983019186719909890000002217418273398047139_);}
	.st74{fill:url(#SVGID_00000067236078102349987670000000339141556640725393_);}
	.st75{clip-path:url(#SVGID_00000176755692590205107090000008104520509273529739_);fill:#353C58;}
	.st76{clip-path:url(#SVGID_00000176755692590205107090000008104520509273529739_);}
	.st77{clip-path:url(#SVGID_00000021835839098752496120000002895905892654612917_);fill:#353C58;}
	.st78{clip-path:url(#SVGID_00000021835839098752496120000002895905892654612917_);}
	.st79{clip-path:url(#SVGID_00000133515235010068763480000000949279561879806650_);fill:#353C58;}
	.st80{clip-path:url(#SVGID_00000133515235010068763480000000949279561879806650_);}
	.st81{clip-path:url(#SVGID_00000063612009312120803010000005085683941762376074_);fill:#353C58;}
	.st82{clip-path:url(#SVGID_00000063612009312120803010000005085683941762376074_);}
	.st83{clip-path:url(#SVGID_00000100380439903417209760000012234131022696111768_);fill:#353C58;}
	.st84{clip-path:url(#SVGID_00000100380439903417209760000012234131022696111768_);fill:#F7AD85;}
	.st85{clip-path:url(#SVGID_00000100380439903417209760000012234131022696111768_);fill:#E48B68;}
	.st86{opacity:0.32;clip-path:url(#SVGID_00000100380439903417209760000012234131022696111768_);fill:#B58B68;}
	.st87{clip-path:url(#SVGID_00000100380439903417209760000012234131022696111768_);fill:#F9CAC0;}
	.st88{clip-path:url(#SVGID_00000100380439903417209760000012234131022696111768_);fill:#FFFFFF;}
	.st89{fill:#91CBFF;}
	.st90{fill:#C2EDFF;}
</style>
<g>
	<defs>
		
			<ellipse id="SVGID_00000087391969938596617630000015302315458760593850_" transform="matrix(0.9291 -0.3699 0.3699 0.9291 -16.7108 25.2558)" cx="57.5" cy="56.2" rx="50.27" ry="50.27"/>
	</defs>
	<clipPath id="SVGID_00000022528872594854848600000010252317084758591380_">
		<use xlink:href="#SVGID_00000087391969938596617630000015302315458760593850_"  style="overflow:visible;"/>
	</clipPath>
	
		<ellipse transform="matrix(0.9291 -0.3699 0.3699 0.9291 -16.7108 25.2558)" style="clip-path:url(#SVGID_00000022528872594854848600000010252317084758591380_);fill:#353C58;" cx="57.5" cy="56.2" rx="50.27" ry="50.27"/>
	<path style="clip-path:url(#SVGID_00000022528872594854848600000010252317084758591380_);fill:#F7AD85;" d="M84.46,73.52
		c1.6-26.75,17.86-63.85,19.87-69.67H12.66c2.01,5.82,18.28,42.92,19.87,69.67c0.27,4.5-7.55,24.78-8.51,29.27l34.28,8.9h0.38
		l34.28-8.9C92.01,98.3,84.19,78.01,84.46,73.52z"/>
	<path style="clip-path:url(#SVGID_00000022528872594854848600000010252317084758591380_);fill:#E48B68;" d="M86.26,45.06
		c-0.97,3.61-0.04,8.41-0.75,11.88c-0.25,1.26,0.16,6.21-0.03,7.4c1.81-11.53,5.49-23.98,9.14-34.65c-2.4,1.81-3.24,5.26-4.44,7.91
		C89.29,39.6,86.42,44.47,86.26,45.06z"/>
	<path style="clip-path:url(#SVGID_00000022528872594854848600000010252317084758591380_);fill:#E48B68;" d="M30.65,102.71
		c0.27-3.62,0.72-7.04,2.29-10.36c1.15-2.44,1.65-4.69,1.56-6.9c-1.33-0.98-2.68-2.04-3.87-3.24c-2.31,7.66-5.96,17.59-6.6,20.57
		l6.48,1.68C30.56,103.88,30.61,103.29,30.65,102.71z"/>
	<path style="clip-path:url(#SVGID_00000022528872594854848600000010252317084758591380_);fill:#E48B68;" d="M83.41,88.77
		c0.09,3.56-0.74,7.04-0.44,10.61c0.17,1.94,0.41,3.89,0.61,5.85l9.38-2.44c-0.63-2.96-4.25-12.81-6.56-20.45
		c-1.09,0.9-2.19,1.78-3.3,2.66C83.26,86.26,83.38,87.52,83.41,88.77z"/>
	<path style="clip-path:url(#SVGID_00000022528872594854848600000010252317084758591380_);fill:#E48B68;" d="M58.86,3.85h-1.09l0,0
		h-1.09c-0.12,6.16,0.61,12.32,0.73,18.49c0.14,7.24-0.18,14.44-0.18,21.7c0,7.1-0.36,14.18-0.57,21.27
		c-0.16,5.66,0.99,15.75,1.11,15.16c0.12,0.59,1.27-9.49,1.11-15.16c-0.2-7.09-0.57-14.17-0.57-21.27c0-7.25-0.33-14.45-0.18-21.7
		C58.25,16.17,58.98,10.01,58.86,3.85z"/>
	<path style="clip-path:url(#SVGID_00000022528872594854848600000010252317084758591380_);fill:#E48B68;" d="M58.2,96.9
		c0.16-5.66-0.32-15.75-0.43-15.16c-0.12-0.59-0.76,9.49-0.6,15.16c0.01,0.51,0.25,4.03,0.5,4.04
		C57.92,100.96,58.19,97.44,58.2,96.9z"/>
	<path style="opacity:0.32;clip-path:url(#SVGID_00000022528872594854848600000010252317084758591380_);fill:#B58B68;" d="
		M84.75,71.64c0.15-2.69,0.47-5.5,0.9-8.37c-0.51,0-1.02,0.03-1.5,0.16c-1.1,0.29-2.08,0.9-2.99,1.57
		c-0.93,0.69-1.82,1.45-2.61,2.29c-0.82,0.87-1.23,1.8-1.67,2.89c-1.06,2.64-2.98,4-5.64,4.84c-2.06,0.65-5.21,1.17-6.62,2.96
		c-0.77,0.98,0.31,2.06,0.11,3.12c-0.09,0.48-0.71,0.82-1.07,1.07c-0.55,0.37-1.1,0.95-1.45,1.52c-0.79,1.31-0.57,2.85-0.24,4.27
		c0.3,1.31,0.79,2.84,2.31,3.15c1.33,0.27,2.67,0.09,3.9,0.77c1.42,0.79,2.6,1.48,4.32,1.34c1.79-0.14,3.39-0.9,5.03-1.57
		c1.36-0.55,2.76-1.04,4.05-1.75c1.49-0.82,2.87-1.92,3.82-3.35c0.85-1.28,0.91-2.5,0.88-4c-0.02-1.01,0.03-1.98,0.17-2.92
		C85.41,76.06,84.67,73.02,84.75,71.64z"/>
	<path style="clip-path:url(#SVGID_00000022528872594854848600000010252317084758591380_);fill:#F7AD85;" d="M136.11,45.91
		c0,0-3.94-4.54-8.88-9.15c-1.82-1.7-4.17-3.05-5.94-4.7c-3.32-3.09-6.23-5.77-7.46-6.85c-3.68-3.24-7.65-8.1-11.5-9.54
		c-5.09-1.92-10.24,4.16-10.24,4.16c0.47,1.69-2.24,3.53-0.27,5.56c1.97,2.03,8.36,4.7,11.64,8.55c2.12,2.49,6.82,6.04,10.5,9.41
		c0.52,0.48,4.65,3.64,8.64,6.49c-6.58,3.14-24.72,11.63-29.66,12.09c-6.07,0.57-9.7,1.75-10.54,3.93
		c-0.03,0.07-0.05,0.14-0.06,0.22c-0.17,0.25-0.34,0.53-0.53,0.86c-1.53,2.68-3.14,6.26-4.21,7.15c-1.07,0.89-5.06,3.06-6.58,3.26
		c-1.52,0.2-5.17,1.1-4.43,3.08c0.36,0.97,2.39,0.47,3.87,0.19c1.29-0.25,2.39-0.51,3.33-0.76c-1.16,0.42-2.28,0.79-2.9,0.91
		c-1.65,0.32-5.54,1.09-6.31,1.76c-0.77,0.67-0.76,2.98,2.47,2.4c3.23-0.58,6.34-1.73,6.8-1.8c0.47-0.07,4.48-1.6,5.45-1.8
		c0,0-6.34,2.44-7.59,2.72c-1.25,0.28-7.13,2.09-7.54,3.55c-0.41,1.46,0.53,2.46,2.66,1.79c2.13-0.67,7.16-2.8,8.13-3.15
		c0.97-0.35,4.85-1.58,5.2-1.69c0,0-3.87,2.34-5.1,2.93c-1.23,0.59-5.36,1.81-4.32,3.92c0.62,1.25,3.47,0.17,5.62-0.85
		c2.14-1.02,5.42-3.12,6.48-3.96c1.06-0.84,4.07-2.79,5.1-6.28c0.8-2.7,2-5.7,3.03-7.5c0.65-0.92,1.52-1.88,2.54-2.46
		c2.41-1.36,20.78-4.18,30.81-7.58c6.16-2.09,15.95-7.47,14.41-10.69C140.01,50.53,136.11,45.91,136.11,45.91z"/>
	<path style="clip-path:url(#SVGID_00000022528872594854848600000010252317084758591380_);fill:#F9CAC0;" d="M66.63,79.33
		c-0.39,0.57-0.36,1.33,0.4,1.41c0.53,0.06,1.59,0.12,1.93-0.35c0.37-0.5,0.23-1.53-0.39-1.77C68.11,78.44,67,78.8,66.63,79.33z"/>
	<path style="clip-path:url(#SVGID_00000022528872594854848600000010252317084758591380_);fill:#F9CAC0;" d="M66.22,82.09
		c-1.11,0-2.62,0.56-2.32,1.81c0.25,1.05,2.81,0.84,3.27,0.03C67.25,83.78,67.18,82.09,66.22,82.09z"/>
	<path style="clip-path:url(#SVGID_00000022528872594854848600000010252317084758591380_);fill:#F9CAC0;" d="M67.12,87.11
		c-0.31-0.44-0.59-0.73-1.33-0.48c-0.35,0.12-0.77,0.28-1.05,0.41c-0.62,0.29-1.07,0.93-0.77,1.69c0.43,1.11,2.93,0.59,3.36-0.25
		c0.17-0.33,0.12-0.84-0.06-1.14C67.21,87.26,67.17,87.18,67.12,87.11z"/>
	<path style="clip-path:url(#SVGID_00000022528872594854848600000010252317084758591380_);fill:#F9CAC0;" d="M72.39,89
		c-0.67,0.18-1.5,0.64-1.83,1.24c-0.19,0.33-0.19,0.73,0.02,1.05c0.21,0.33,0.43,0.41,0.78,0.49c0.17,0.04,0.36,0.04,0.54,0.04
		c0.37,0,0.7-0.11,1.02-0.29c0.53-0.29,0.97-0.6,0.97-1.25c0-0.32-0.07-0.65-0.29-0.89c-0.27-0.28-0.66-0.52-1.06-0.43
		C72.48,88.97,72.44,88.99,72.39,89z"/>
	<path style="opacity:0.32;clip-path:url(#SVGID_00000022528872594854848600000010252317084758591380_);fill:#B58B68;" d="
		M32.25,71.64c-0.15-2.69-0.47-5.5-0.9-8.37c0.51,0,1.02,0.03,1.5,0.16c1.1,0.29,2.08,0.9,2.99,1.57c0.93,0.69,1.82,1.45,2.61,2.29
		c0.82,0.87,1.23,1.8,1.67,2.89c1.06,2.64,2.98,4,5.64,4.84c2.06,0.65,5.21,1.17,6.62,2.96c0.77,0.98-0.31,2.06-0.11,3.12
		c0.09,0.48,0.71,0.82,1.07,1.07c0.55,0.37,1.1,0.95,1.45,1.52c0.79,1.31,0.57,2.85,0.24,4.27c-0.3,1.31-0.79,2.84-2.31,3.15
		c-1.33,0.27-2.67,0.09-3.9,0.77c-1.42,0.79-2.6,1.48-4.32,1.34c-1.79-0.14-3.39-0.9-5.03-1.57c-1.36-0.55-2.76-1.04-4.05-1.75
		c-1.49-0.82-2.87-1.92-3.82-3.35c-0.85-1.28-0.91-2.5-0.88-4c0.02-1.01-0.03-1.98-0.17-2.92C31.59,76.06,32.33,73.02,32.25,71.64z"
		/>
	<path style="clip-path:url(#SVGID_00000022528872594854848600000010252317084758591380_);fill:#F7AD85;" d="M-19.11,45.91
		c0,0,3.94-4.54,8.88-9.15c1.82-1.7,4.17-3.05,5.94-4.7c3.32-3.09,6.23-5.77,7.46-6.85c3.68-3.24,7.65-8.1,11.5-9.54
		c5.09-1.92,10.24,4.16,10.24,4.16c-0.47,1.69,2.24,3.53,0.27,5.56c-1.97,2.03-8.36,4.7-11.64,8.55c-2.12,2.49-6.82,6.04-10.5,9.41
		c-0.52,0.48-4.65,3.64-8.64,6.49c6.58,3.14,24.72,11.63,29.66,12.09c6.07,0.57,9.7,1.75,10.54,3.93c0.03,0.07,0.05,0.14,0.06,0.22
		c0.17,0.25,0.34,0.53,0.53,0.86c1.53,2.68,3.14,6.26,4.21,7.15c1.07,0.89,5.06,3.06,6.58,3.26c1.52,0.2,5.17,1.1,4.43,3.08
		c-0.36,0.97-2.39,0.47-3.87,0.19c-1.29-0.25-2.39-0.51-3.33-0.76c1.16,0.42,2.28,0.79,2.9,0.91c1.65,0.32,5.54,1.09,6.31,1.76
		c0.77,0.67,0.76,2.98-2.47,2.4c-3.23-0.58-6.34-1.73-6.8-1.8c-0.47-0.07-4.48-1.6-5.45-1.8c0,0,6.34,2.44,7.59,2.72
		c1.25,0.28,7.13,2.09,7.54,3.55c0.41,1.46-0.53,2.46-2.66,1.79c-2.13-0.67-7.16-2.8-8.13-3.15c-0.97-0.35-4.85-1.58-5.2-1.69
		c0,0,3.87,2.34,5.1,2.93c1.23,0.59,5.36,1.81,4.32,3.92c-0.62,1.25-3.47,0.17-5.62-0.85c-2.14-1.02-5.42-3.12-6.48-3.96
		c-1.06-0.84-4.07-2.79-5.1-6.28c-0.8-2.7-2-5.7-3.03-7.5c-0.65-0.92-1.52-1.88-2.54-2.46c-2.41-1.36-20.78-4.18-30.81-7.58
		c-6.16-2.09-15.95-7.47-14.41-10.69C-23.01,50.53-19.11,45.91-19.11,45.91z"/>
	<path style="clip-path:url(#SVGID_00000022528872594854848600000010252317084758591380_);fill:#E48B68;" d="M31.41,58.18
		C31.19,56.56,31.04,55,31,53.36c-0.05-1.83-0.11-3.65-0.45-5.41c0,0,0-0.01,0-0.01c-0.18-4.06-5.9-13.93-4.3-23.86
		c0.28-1.71-3.44-9.81-3.29-10.33c0,0-3.2-0.01-8.29,1.9c-3.85,1.45-7.82,6.3-11.5,9.54c-1.23,1.09-4.14,3.77-7.46,6.85
		c-1.78,1.65-4.12,3-5.94,4.7c-1.02,0.96-2,1.91-2.92,2.82H7.38c2.48-2.09,4.83-4.08,6.16-5.65c2.1-2.47,5.49-4.46,8.17-6.1
		c0.64,1.85,1.29,3.73,1.93,5.69c0.21,0.65,0.43,1.3,0.64,1.96c0.18,0.56,0.36,1.13,0.54,1.7c0.18,0.58,0.36,1.16,0.54,1.74
		c0.19,0.62,0.38,1.24,0.57,1.87c0.17,0.55,0.33,1.11,0.49,1.67c0.19,0.65,0.38,1.29,0.56,1.94c1.74,6.12,3.26,12.41,4.29,18.47
		c0,0,0,0.01,0,0.01C31.94,62.12,31.54,59.11,31.41,58.18z"/>
	<path style="clip-path:url(#SVGID_00000022528872594854848600000010252317084758591380_);fill:#E48B68;" d="M85.62,58.18
		c0.22-1.61,0.37-3.18,0.41-4.82c0.05-1.83,0.11-3.65,0.45-5.41c0,0,0-0.01,0-0.01c0.18-4.06,4.81-11.39,4.3-23.86
		c-0.07-1.73,3.44-9.81,3.29-10.33c0,0,3.2-0.01,8.29,1.9c3.85,1.45,7.82,6.3,11.5,9.54c1.23,1.09,4.14,3.77,7.46,6.85
		c1.78,1.65,4.12,3,5.94,4.7c1.02,0.96,2,1.91,2.92,2.82h-20.52c-2.48-2.09-4.83-4.08-6.16-5.65c-2.1-2.47-5.49-4.46-8.17-6.1
		c-0.64,1.85-1.29,3.73-1.93,5.69c-0.21,0.65-0.43,1.3-0.64,1.96c-0.18,0.56-0.36,1.13-0.54,1.7c-0.18,0.58-0.36,1.16-0.54,1.74
		c-0.19,0.62-0.38,1.24-0.57,1.87c-0.17,0.55-0.33,1.11-0.49,1.67c-0.19,0.65-0.38,1.29-0.56,1.94c-1.74,6.12-3.26,12.41-4.29,18.47
		c0,0,0,0.01,0,0.01C85.08,62.12,85.49,59.11,85.62,58.18z"/>
	<path style="clip-path:url(#SVGID_00000022528872594854848600000010252317084758591380_);fill:#E48B68;" d="M41.78,91.04
		c1.9,0.8,3.95,1.37,4.46,0.33c0.06-0.11,0.09-0.22,0.12-0.33H41.78z"/>
	<path style="clip-path:url(#SVGID_00000022528872594854848600000010252317084758591380_);fill:#F9CAC0;" d="M50.37,79.33
		c0.39,0.57,0.36,1.33-0.4,1.41c-0.53,0.06-1.59,0.12-1.93-0.35c-0.37-0.5-0.23-1.53,0.39-1.77C48.89,78.44,50,78.8,50.37,79.33z"/>
	<path style="clip-path:url(#SVGID_00000022528872594854848600000010252317084758591380_);fill:#F9CAC0;" d="M50.77,82.09
		c1.11,0,2.62,0.56,2.32,1.81c-0.25,1.05-2.81,0.84-3.27,0.03C49.75,83.78,49.82,82.09,50.77,82.09z"/>
	<path style="clip-path:url(#SVGID_00000022528872594854848600000010252317084758591380_);fill:#F9CAC0;" d="M49.88,87.11
		c0.31-0.44,0.59-0.73,1.33-0.48c0.35,0.12,0.77,0.28,1.05,0.41c0.62,0.29,1.07,0.93,0.77,1.69c-0.43,1.11-2.93,0.59-3.36-0.25
		c-0.17-0.33-0.12-0.84,0.06-1.14C49.79,87.26,49.83,87.18,49.88,87.11z"/>
	<path style="clip-path:url(#SVGID_00000022528872594854848600000010252317084758591380_);fill:#F9CAC0;" d="M44.61,89
		c0.67,0.18,1.5,0.64,1.83,1.24c0.19,0.33,0.19,0.73-0.02,1.05c-0.21,0.33-0.43,0.41-0.78,0.49c-0.17,0.04-0.36,0.04-0.54,0.04
		c-0.37,0-0.7-0.11-1.02-0.29c-0.53-0.29-0.97-0.6-0.97-1.25c0-0.32,0.07-0.65,0.29-0.89c0.27-0.28,0.66-0.52,1.06-0.43
		C44.52,88.97,44.56,88.99,44.61,89z"/>
	<path style="clip-path:url(#SVGID_00000022528872594854848600000010252317084758591380_);fill:#E48B68;" d="M29.04,23.83
		c1.73-1.38,5.9-1.74,8.44-2.53c2.95-0.92,5.24-2.75,6.35-5.02c1.03-2.12,1.32-4.48,2.1-6.63c0.5-1.39,1.06-5.43,2.71-5.87
		c0.17,2.6-0.64,4.99-1.15,7.53c-0.5,2.47-0.42,5.38-1.54,7.74c-1.3,2.72-4.26,4.83-7.77,4.97C35.65,24.12,30.9,22.63,29.04,23.83z"
		/>
	<path style="clip-path:url(#SVGID_00000022528872594854848600000010252317084758591380_);fill:#E48B68;" d="M85.96,23.83
		c-1.73-1.38-5.9-1.74-8.44-2.53c-2.95-0.92-5.24-2.75-6.35-5.02c-1.03-2.12-1.32-4.48-2.1-6.63c-0.5-1.39-1.06-5.43-2.71-5.87
		C66.2,6.37,67,8.75,67.52,11.3c0.5,2.47,0.42,5.38,1.54,7.74c1.3,2.72,4.26,4.83,7.77,4.97C79.36,24.12,84.1,22.63,85.96,23.83z"/>
	<path style="clip-path:url(#SVGID_00000022528872594854848600000010252317084758591380_);fill:#FFFFFF;" d="M96.37,82.27l0.56-1.1
		l1.68,0.99c0.08-0.33,0.16-0.67,0.23-1l-2.18-1.59l-0.41,1.88l-3.22-1.51l-0.68,1.23l-3-1.15l3,1.95l0.99-1.24L96.37,82.27z"/>
	<path style="clip-path:url(#SVGID_00000022528872594854848600000010252317084758591380_);fill:#FFFFFF;" d="M99.35,55.05
		l-0.52-1.11l1.81-0.72c-0.21-0.27-0.43-0.53-0.65-0.79l-2.59,0.75l1.24,1.47l-3.17,1.62l0.55,1.29l-2.75,1.66l3.38-1.18l-0.37-1.55
		L99.35,55.05z"/>
	<path style="clip-path:url(#SVGID_00000022528872594854848600000010252317084758591380_);fill:#FFFFFF;" d="M99.01,75.93l0.17-1.22
		l1.91,0.4c-0.03-0.34-0.07-0.68-0.11-1.02l-2.57-0.8l0.22,1.91l-3.54-0.39l-0.25,1.38l-3.21-0.12l3.47,0.87l0.54-1.5L99.01,75.93z"
		/>
	<polygon style="clip-path:url(#SVGID_00000022528872594854848600000010252317084758591380_);fill:#FFFFFF;" points="89.06,58.31 
		92.48,54.69 91.14,53.11 95.32,49.18 92.84,47.67 98.21,44.08 99.15,45.02 95.34,48.04 96.59,49.4 92.45,53.04 93.62,55.07 	"/>
	<path style="clip-path:url(#SVGID_00000022528872594854848600000010252317084758591380_);fill:#FFFFFF;" d="M20.73,83.71l-0.56-1.1
		L18.5,83.6c-0.08-0.33-0.16-0.67-0.23-1l2.18-1.59l0.41,1.88l3.22-1.51l0.68,1.23l3-1.15l-3,1.95l-0.99-1.24L20.73,83.71z"/>
	<path style="clip-path:url(#SVGID_00000022528872594854848600000010252317084758591380_);fill:#FFFFFF;" d="M17.76,56.49l0.52-1.11
		l-1.81-0.72c0.21-0.27,0.43-0.53,0.65-0.79l2.59,0.75l-1.24,1.47l3.17,1.62L21.08,59l2.75,1.66l-3.38-1.18l0.37-1.55L17.76,56.49z"
		/>
	<path style="clip-path:url(#SVGID_00000022528872594854848600000010252317084758591380_);fill:#FFFFFF;" d="M18.1,77.37l-0.17-1.22
		l-1.91,0.4c0.03-0.34,0.07-0.68,0.11-1.02l2.57-0.8l-0.22,1.91l3.54-0.39l0.25,1.38l3.21-0.12l-3.47,0.87l-0.54-1.5L18.1,77.37z"/>
	<polygon style="clip-path:url(#SVGID_00000022528872594854848600000010252317084758591380_);fill:#FFFFFF;" points="28.05,59.75 
		24.63,56.13 25.97,54.55 21.78,50.62 24.26,49.11 18.89,45.52 17.96,46.46 21.77,49.48 20.52,50.84 24.65,54.48 23.49,56.51 	"/>
</g>
</svg>
