<?xml version="1.0" encoding="utf-8"?>
<!-- Generator: Adobe Illustrator 27.2.0, SVG Export Plug-In . SVG Version: 6.00 Build 0)  -->
<svg version="1.1" id="Layer_1" xmlns="http://www.w3.org/2000/svg" xmlns:xlink="http://www.w3.org/1999/xlink" x="0px" y="0px"
	 viewBox="0 0 115.01 112.41" style="enable-background:new 0 0 115.01 112.41;" xml:space="preserve">
<style type="text/css">
	.st0{clip-path:url(#SVGID_00000126296063230528329720000003068872114023939219_);fill:#353C58;}
	.st1{clip-path:url(#SVGID_00000126296063230528329720000003068872114023939219_);fill:#F7AD85;}
	.st2{clip-path:url(#SVGID_00000126296063230528329720000003068872114023939219_);fill:#E48B68;}
	.st3{opacity:0.32;clip-path:url(#SVGID_00000126296063230528329720000003068872114023939219_);fill:#B58B68;}
	.st4{clip-path:url(#SVGID_00000126296063230528329720000003068872114023939219_);fill:#F9CAC0;}
	.st5{clip-path:url(#SVGID_00000126296063230528329720000003068872114023939219_);fill:#FFFFFF;}
	.st6{clip-path:url(#SVGID_00000005241519833468584220000010415816203645148598_);fill:#353C58;}
	.st7{clip-path:url(#SVGID_00000005241519833468584220000010415816203645148598_);fill:#F7AD85;}
	.st8{clip-path:url(#SVGID_00000005241519833468584220000010415816203645148598_);fill:#E48B68;}
	.st9{opacity:0.32;clip-path:url(#SVGID_00000005241519833468584220000010415816203645148598_);fill:#B58B68;}
	.st10{clip-path:url(#SVGID_00000005241519833468584220000010415816203645148598_);fill:#F9CAC0;}
	.st11{clip-path:url(#SVGID_00000005241519833468584220000010415816203645148598_);fill:#FFFFFF;}
	.st12{clip-path:url(#SVGID_00000072975502401497141420000000251774749989562757_);fill:#353C58;}
	.st13{clip-path:url(#SVGID_00000072975502401497141420000000251774749989562757_);fill:#F7AD85;}
	.st14{clip-path:url(#SVGID_00000072975502401497141420000000251774749989562757_);fill:#E48B68;}
	.st15{clip-path:url(#SVGID_00000072975502401497141420000000251774749989562757_);fill:#FFFFFF;}
	.st16{clip-path:url(#SVGID_00000054948642894108627420000007848034051615711161_);fill:#353C58;}
	.st17{clip-path:url(#SVGID_00000054948642894108627420000007848034051615711161_);fill:#F7AD85;}
	.st18{clip-path:url(#SVGID_00000054948642894108627420000007848034051615711161_);fill:#E48B68;}
	.st19{clip-path:url(#SVGID_00000054948642894108627420000007848034051615711161_);fill:#F9CAC0;}
	.st20{clip-path:url(#SVGID_00000054948642894108627420000007848034051615711161_);}
	.st21{fill:#FFFFFF;}
	.st22{clip-path:url(#SVGID_00000082326651477989828450000001373118315941914010_);fill:#353C58;}
	.st23{clip-path:url(#SVGID_00000082326651477989828450000001373118315941914010_);fill:#F7AD85;}
	.st24{clip-path:url(#SVGID_00000082326651477989828450000001373118315941914010_);fill:#E48B68;}
	.st25{clip-path:url(#SVGID_00000082326651477989828450000001373118315941914010_);}
	.st26{clip-path:url(#SVGID_00000099633561873393566410000013504236989053633442_);fill:#353C58;}
	.st27{clip-path:url(#SVGID_00000099633561873393566410000013504236989053633442_);fill:#F7AD85;}
	.st28{clip-path:url(#SVGID_00000099633561873393566410000013504236989053633442_);fill:#E48B68;}
	.st29{opacity:0.32;clip-path:url(#SVGID_00000099633561873393566410000013504236989053633442_);fill:#B58B68;}
	.st30{clip-path:url(#SVGID_00000099633561873393566410000013504236989053633442_);}
	.st31{fill:#F7AD85;}
	.st32{fill:#F9CAC0;}
	.st33{clip-path:url(#SVGID_00000075159623806920028470000009277100100549602196_);fill:#353C58;}
	.st34{clip-path:url(#SVGID_00000075159623806920028470000009277100100549602196_);}
	.st35{fill:#E48B68;}
	.st36{clip-path:url(#SVGID_00000071528458591710535180000000701795799845933994_);fill:#353C58;}
	.st37{clip-path:url(#SVGID_00000071528458591710535180000000701795799845933994_);}
	.st38{clip-path:url(#SVGID_00000021098063980257424090000016429767453703639689_);fill:#353C58;}
	.st39{clip-path:url(#SVGID_00000021098063980257424090000016429767453703639689_);}
	.st40{opacity:0.32;fill:#B58B68;}
	.st41{clip-path:url(#SVGID_00000021098063980257424090000016429767453703639689_);fill:#E48B68;}
	.st42{clip-path:url(#SVGID_00000007405565629139388890000008587054069319146163_);fill:#353C58;}
	.st43{clip-path:url(#SVGID_00000007405565629139388890000008587054069319146163_);}
	.st44{clip-path:url(#SVGID_00000007405565629139388890000008587054069319146163_);fill:#E48B68;}
	.st45{clip-path:url(#SVGID_00000074411928672924075470000009004733748805688719_);fill:#353C58;}
	.st46{clip-path:url(#SVGID_00000074411928672924075470000009004733748805688719_);}
	.st47{clip-path:url(#SVGID_00000074411928672924075470000009004733748805688719_);fill:#DB7959;}
	.st48{clip-path:url(#SVGID_00000074411928672924075470000009004733748805688719_);fill:#E72527;}
	.st49{clip-path:url(#SVGID_00000120530408270180569460000014384362996218998424_);fill:#353C58;}
	.st50{clip-path:url(#SVGID_00000120530408270180569460000014384362996218998424_);fill:#F7AD85;}
	.st51{clip-path:url(#SVGID_00000120530408270180569460000014384362996218998424_);fill:#E48B68;}
	.st52{clip-path:url(#SVGID_00000120530408270180569460000014384362996218998424_);fill:#795050;}
	.st53{clip-path:url(#SVGID_00000120530408270180569460000014384362996218998424_);}
	.st54{clip-path:url(#SVGID_00000120530408270180569460000014384362996218998424_);fill:#FFFFFF;}
	.st55{clip-path:url(#SVGID_00000109744333684347173160000011616177771602429628_);fill:#353C58;}
	.st56{clip-path:url(#SVGID_00000109744333684347173160000011616177771602429628_);fill:#F7AD85;}
	.st57{clip-path:url(#SVGID_00000109744333684347173160000011616177771602429628_);fill:#E48B68;}
	.st58{clip-path:url(#SVGID_00000109744333684347173160000011616177771602429628_);fill:#795050;}
	.st59{clip-path:url(#SVGID_00000109744333684347173160000011616177771602429628_);}
	.st60{clip-path:url(#SVGID_00000109744333684347173160000011616177771602429628_);fill:#FFFFFF;}
	.st61{clip-path:url(#SVGID_00000010989863473209812360000007723533247338269837_);fill:#353C58;}
	.st62{clip-path:url(#SVGID_00000010989863473209812360000007723533247338269837_);fill:#E48B68;}
	.st63{clip-path:url(#SVGID_00000010989863473209812360000007723533247338269837_);}
	.st64{fill:#795050;}
	.st65{clip-path:url(#SVGID_00000010989863473209812360000007723533247338269837_);fill:#F7AD85;}
	.st66{clip-path:url(#SVGID_00000010989863473209812360000007723533247338269837_);fill:#FFFFFF;}
	.st67{fill:#353C58;}
	.st68{fill:#DB7959;}
	.st69{fill:#E72527;}
	.st70{fill:url(#SVGID_00000155859251924855568970000014344336129018794128_);}
	.st71{fill:url(#SVGID_00000079455461507470162500000018405752041849201067_);}
	.st72{fill:url(#SVGID_00000096051045860143999510000000464276670487366533_);}
	.st73{fill:url(#SVGID_00000026851247068431745100000006016515097142829462_);}
	.st74{fill:url(#SVGID_00000177484486432456504160000004215756300133329337_);}
	.st75{clip-path:url(#SVGID_00000096038226196122513840000003692851396539287485_);fill:#353C58;}
	.st76{clip-path:url(#SVGID_00000096038226196122513840000003692851396539287485_);}
	.st77{clip-path:url(#SVGID_00000057133947528145195420000006473563342028173713_);fill:#353C58;}
	.st78{clip-path:url(#SVGID_00000057133947528145195420000006473563342028173713_);}
	.st79{clip-path:url(#SVGID_00000003067121778366671250000018074687196216358018_);fill:#353C58;}
	.st80{clip-path:url(#SVGID_00000003067121778366671250000018074687196216358018_);}
	.st81{clip-path:url(#SVGID_00000168109592538896182130000015219274349980152765_);fill:#353C58;}
	.st82{clip-path:url(#SVGID_00000168109592538896182130000015219274349980152765_);}
	.st83{clip-path:url(#SVGID_00000006697794060033407330000007741752216793749950_);fill:#353C58;}
	.st84{clip-path:url(#SVGID_00000006697794060033407330000007741752216793749950_);fill:#F7AD85;}
	.st85{clip-path:url(#SVGID_00000006697794060033407330000007741752216793749950_);fill:#E48B68;}
	.st86{opacity:0.32;clip-path:url(#SVGID_00000006697794060033407330000007741752216793749950_);fill:#B58B68;}
	.st87{clip-path:url(#SVGID_00000006697794060033407330000007741752216793749950_);fill:#F9CAC0;}
	.st88{clip-path:url(#SVGID_00000006697794060033407330000007741752216793749950_);fill:#FFFFFF;}
	.st89{fill:#91CBFF;}
	.st90{fill:#C2EDFF;}
</style>
<g>
	<defs>
		
			<ellipse id="SVGID_00000087391969938596617630000015302315458760593850_" transform="matrix(0.9291 -0.3699 0.3699 0.9291 -7.0883 75.4397)" cx="193.18" cy="56.2" rx="50.27" ry="50.27"/>
	</defs>
	<clipPath id="SVGID_00000091696414130116469480000014489710197590354345_">
		<use xlink:href="#SVGID_00000087391969938596617630000015302315458760593850_"  style="overflow:visible;"/>
	</clipPath>
	<path style="clip-path:url(#SVGID_00000091696414130116469480000014489710197590354345_);fill:#F7AD85;" d="M116.56,45.91
		c0,0,3.94-4.54,8.88-9.15c1.82-1.7,4.17-3.05,5.94-4.7c3.32-3.09,6.23-5.77,7.46-6.85c3.68-3.24,7.65-8.1,11.5-9.54
		c5.09-1.92,10.24,4.16,10.24,4.16c-0.47,1.69,2.24,3.53,0.27,5.56c-1.97,2.03-8.36,4.7-11.64,8.55c-2.12,2.49-6.82,6.04-10.5,9.41
		c-0.52,0.48-4.65,3.64-8.64,6.49c6.58,3.14,24.72,11.63,29.66,12.09c6.07,0.57,9.7,1.75,10.54,3.93c0.03,0.07,0.05,0.14,0.06,0.22
		c0.17,0.25,0.34,0.53,0.53,0.86c1.53,2.68,3.14,6.26,4.21,7.15c1.07,0.89,5.06,3.06,6.58,3.26c1.52,0.2,5.17,1.1,4.43,3.08
		c-0.36,0.97-2.39,0.47-3.87,0.19c-1.29-0.25-2.39-0.51-3.33-0.76c1.16,0.42,2.28,0.79,2.9,0.91c1.65,0.32,5.54,1.09,6.31,1.76
		c0.77,0.67,0.76,2.98-2.47,2.4c-3.23-0.58-6.34-1.73-6.8-1.8c-0.47-0.07-4.48-1.6-5.45-1.8c0,0,6.34,2.44,7.59,2.72
		c1.25,0.28,7.13,2.09,7.54,3.55c0.41,1.46-0.53,2.46-2.66,1.79c-2.13-0.67-7.16-2.8-8.13-3.15c-0.97-0.35-4.85-1.58-5.2-1.69
		c0,0,3.87,2.34,5.1,2.93c1.23,0.59,5.36,1.81,4.32,3.92c-0.62,1.25-3.47,0.17-5.62-0.85c-2.14-1.02-5.42-3.12-6.48-3.96
		c-1.06-0.84-4.07-2.79-5.1-6.28c-0.8-2.7-2-5.7-3.03-7.5c-0.65-0.92-1.52-1.88-2.54-2.46c-2.41-1.36-20.78-4.18-30.81-7.58
		c-6.16-2.09-15.95-7.47-14.41-10.69C112.67,50.53,116.57,45.91,116.56,45.91z"/>
</g>
<g>
	<defs>
		
			<ellipse id="SVGID_00000144296807905544362970000000779456101552457642_" transform="matrix(0.9202 -0.3915 0.3915 0.9202 44.7905 7.722)" cx="41.33" cy="-105.99" rx="50.27" ry="50.27"/>
	</defs>
	<clipPath id="SVGID_00000149372306073007376950000004006579099523952829_">
		<use xlink:href="#SVGID_00000144296807905544362970000000779456101552457642_"  style="overflow:visible;"/>
	</clipPath>
	<g style="clip-path:url(#SVGID_00000149372306073007376950000004006579099523952829_);">
		<path class="st31" d="M75.6-4.3c0.51,0.63,1,1.22,1.45,1.74c0.5,0.59,0.87,1.27,1.09,2.01c1.74,5.93,2.66,21.65,5.29,31.71
			c0.27,1.03-0.13,5.52,1.46,9.62c3.26-0.22,8.17-1.77,11.55-2.55c1.19-0.28,2.39-0.54,3.58-0.79C94.68,24.66,87.39,4.22,86.07-7.91
			c0.26-6.82,3.09-12.33,2.99-15.08c-0.05-1.36-0.73-8.1-0.66-11.37c0.08-3.27-3.72-12.59-4.81-12.55
			c-0.46,0.02-0.81,0.46-0.88,0.78c-0.12,0.51,0.06,0.8,0.44,1.22c-0.37-0.16-0.82-0.78-1.66,0.43c-0.83,1.18-0.31,3.56,0.44,6.17
			c0.38,1.33,0.8,3.88,0.75,3.81c-0.38-0.5-0.57-2.19-0.78-3.28c-0.5-2.59-1.21-5.34-2.73-3.48c-0.86,1.06-0.67,3.36-0.13,5.6
			c0.42,1.72,0.46,3.63,0.62,4.59c0.36,2.2-0.42,7.47-0.42,7.47C76.17-12.12,73.82-6.49,75.6-4.3z"/>
		<path class="st35" d="M77.68-1.82c2.05,4.54,2.9,22.09,5.74,32.99c0.27,1.03-0.13,5.52,1.46,9.62c1.51-0.1,4.69-1.38,6.21-1.58
			c-2.17-4.25-3.63-8.88-5.15-13.37c-1.47-4.34-2.68-11.59-2.07-20.14c0.3-4.16-3.46-6.53-5.77-9.8c-2.03-2.86-2.38-5.63-1.75-9.03
			c0.75-4.12,3.35-8.67,3.29-12.85c0-0.27-0.02-0.54-0.04-0.81c-0.15,1.72-0.37,3.2-0.37,3.2C76.17-12.12,73.82-6.49,75.6-4.3
			C76.36-3.36,77.09-2.5,77.68-1.82z"/>
	</g>
</g>
<g>
	<defs>
		
			<ellipse id="SVGID_00000106128300057053055890000007728289780987252112_" transform="matrix(0.9202 -0.3915 0.3915 0.9202 -17.4132 26.9973)" cx="57.5" cy="56.2" rx="50.27" ry="50.27"/>
	</defs>
	<clipPath id="SVGID_00000028291473384993239750000011641333295000162988_">
		<use xlink:href="#SVGID_00000106128300057053055890000007728289780987252112_"  style="overflow:visible;"/>
	</clipPath>
	
		<ellipse transform="matrix(0.9202 -0.3915 0.3915 0.9202 -17.4132 26.9973)" style="clip-path:url(#SVGID_00000028291473384993239750000011641333295000162988_);fill:#353C58;" cx="57.5" cy="56.2" rx="50.27" ry="50.27"/>
	<path style="clip-path:url(#SVGID_00000028291473384993239750000011641333295000162988_);fill:#F7AD85;" d="M-4.56,142.14
		c-0.25,1.84-0.48,3.48-0.71,5H15.5c0.99-2.93,2.01-6.08,2.92-9.3c1.31,2.75,2.63,5.89,3.76,9.3h70.64c1.13-3.41,2.45-6.55,3.76-9.3
		c0.91,3.22,1.94,6.37,2.92,9.3h20.76c-0.22-1.52-0.46-3.16-0.71-5c-2.19-16.18,2.03-13.52,0-33.06
		c-2.03-19.54-17.04-22.97-23.76-24.54c-6.72-1.56-20.47-7.23-23.13-9.26c-1.31-1-1.52-6.1-1.39-11.01
		c2.05-3.15,3.12-7.31,3.86-10.95c0.32,0.41,1,1.17,1.61,1.22c0.84,0.06,2.06-2.57,2.44-3.99c0.39-1.42,0.9-6.24,0.32-8.04
		c-0.58-1.8-1.93-0.39-2.38,0.32c-0.16,0.26-0.5,0.5-0.86,0.7c0.13-2.38,0.25-4.76,0.59-7.13c0.68-4.66,0.37-9.15-1.21-13.64
		c-3.33-9.48-16.35-10.15-18.15-10.19v0l0,0l0,0v0c-1.81,0.05-14.82,0.71-18.15,10.19c-1.58,4.49-1.89,8.98-1.21,13.64
		c0.35,2.36,0.46,4.75,0.59,7.13c-0.36-0.2-0.7-0.44-0.86-0.7c-0.45-0.71-1.8-2.12-2.38-0.32c-0.58,1.8-0.06,6.63,0.32,8.04
		c0.39,1.42,1.61,4.05,2.44,3.99c0.61-0.05,1.28-0.81,1.61-1.22c0.75,3.64,1.81,7.8,3.86,10.95c0.13,4.91-0.08,10.01-1.39,11.01
		c-2.66,2.03-16.41,7.7-23.13,9.26c-6.72,1.56-21.72,5-23.76,24.54C-6.59,128.62-2.37,125.96-4.56,142.14z"/>
	<path style="clip-path:url(#SVGID_00000028291473384993239750000011641333295000162988_);fill:#E48B68;" d="M43.07,73.97
		c3.37,2.98,6.65,6.06,11.24,7.36c7.89,2.24,12.92-1.83,18.32-6.1c-1.27-1.08-1.47-6.11-1.35-10.97C71.4,64.1,65.61,74,57.67,74
		c-7.53,0-14.05-9.89-13.95-9.73C43.82,68.04,43.72,71.92,43.07,73.97z"/>
	<path style="clip-path:url(#SVGID_00000028291473384993239750000011641333295000162988_);fill:#E48B68;" d="M115.34,140.2
		c-1.64-6.97-4.32-13.63-7.7-19.95c-3.1-5.8-7.46-11.49-11.02-17.46c-2.85,3.51-6.19,6.76-9.58,10.02
		c-8.64,8.3-18.2,11.33-30.14,8.66c-11.86-2.65-21.61-9.37-30.67-17.2c-0.27-0.23-0.55-0.47-0.82-0.71
		c-0.15,3.86-0.91,7.68-2.36,11.31c-1.91,4.79-4.25,9.34-6.34,14.05c-2.7,6.1-1.5,10.84-0.98,17.15c0.01,0.13,0,0.25,0,0.38
		c0.92-2.73,1.85-5.63,2.69-8.6c1.31,2.75,2.63,5.89,3.76,9.3h70.64c1.13-3.41,2.45-6.55,3.76-9.3c0.91,3.22,1.94,6.37,2.92,9.3
		h17.25C116.32,144.83,115.88,142.51,115.34,140.2z"/>
	<path style="clip-path:url(#SVGID_00000028291473384993239750000011641333295000162988_);fill:#795050;" d="M67.17,11.59
		c-3.47-1.12-6.74-1.61-9.79-1.66c-3.05,0.05-6.32,0.54-9.79,1.66c-13.77,4.45-12.35,10.5-12.1,16.55
		c0.25,6.2,1.27,11.13,1.87,13.56c0.06,0.23,0.06,0.47,0.11,0.71c1.04,2.3,1.58,4.85,1.63,7.41c0.79,0.12,1.96-1.21,1.87-2.15
		c-0.14-1.52-0.49-3.53-0.78-7.27c-0.12-1.57,0.26-4.47,0.39-7.49c0.36-8.07,1.78-8.08,7.37-9.43c3.08-0.75,5.77-0.34,7.63,0.67
		c0.56,0.31,1.18,0.48,1.81,0.53c0.62-0.05,1.24-0.22,1.81-0.53c1.86-1.02,4.54-1.42,7.63-0.67c2.79,0.68,4.55,1.02,5.64,2.2
		c1.1,1.18,4.65-0.02,4.56,6.57c-0.04,3.03-2.33,6.59-2.45,8.16c-0.29,3.74-0.64,5.75-0.78,7.27c-0.09,0.94,1.09,2.27,1.87,2.15
		c0.05-2.56,0.59-5.1,1.63-7.41c0.05-0.23,0.05-0.47,0.11-0.71c0.6-2.42,1.63-7.36,1.87-13.56C79.51,22.09,80.93,16.04,67.17,11.59z
		"/>
	<path style="clip-path:url(#SVGID_00000028291473384993239750000011641333295000162988_);fill:#FFFFFF;" d="M86.96,59.21
		l-0.49-1.36l2.21-0.65c-0.22-0.34-0.45-0.67-0.68-1l-3.12,0.59l1.29,1.86l-3.89,1.56l0.51,1.58l-3.4,1.65l4.09-1.02l-0.27-1.86
		L86.96,59.21z"/>
	<path style="clip-path:url(#SVGID_00000028291473384993239750000011641333295000162988_);fill:#FFFFFF;" d="M91.24,78.12l1.4-1.27
		l2.45,2.1c0.29-0.43,0.57-0.86,0.85-1.29l-3.07-3.14l-1.49,2.45l-4.67-3.34l-1.54,1.41l-4.18-2.64l3.9,3.7l2.04-1.28L91.24,78.12z"
		/>
	<polygon style="clip-path:url(#SVGID_00000028291473384993239750000011641333295000162988_);fill:#FFFFFF;" points="81.06,68.29 
		86.04,68.16 86.22,66.1 91.96,66.3 91.28,63.48 97.61,64.77 97.61,66.08 92.77,65.51 92.69,67.35 87.19,66.99 86.57,69.25 	"/>
	<path style="clip-path:url(#SVGID_00000028291473384993239750000011641333295000162988_);fill:#FFFFFF;" d="M25.17,59.21l0.49-1.36
		l-2.21-0.65c0.22-0.34,0.45-0.67,0.68-1l3.12,0.59l-1.29,1.86l3.89,1.56l-0.51,1.58l3.4,1.65l-4.09-1.02l0.27-1.86L25.17,59.21z"/>
	<path style="clip-path:url(#SVGID_00000028291473384993239750000011641333295000162988_);fill:#FFFFFF;" d="M20.9,78.12l-1.4-1.27
		l-2.45,2.1c-0.29-0.43-0.57-0.86-0.85-1.29l3.07-3.14l1.49,2.45l4.67-3.34l1.54,1.41l4.18-2.64l-3.9,3.7l-2.04-1.28L20.9,78.12z"/>
	<polygon style="clip-path:url(#SVGID_00000028291473384993239750000011641333295000162988_);fill:#FFFFFF;" points="31.08,68.29 
		26.1,68.16 25.92,66.1 20.18,66.3 20.86,63.48 14.53,64.77 14.53,66.08 19.36,65.51 19.45,67.35 24.95,66.99 25.56,69.25 	"/>
</g>
</svg>
